<?xml version="1.0" encoding="utf-8" standalone="no"?>
<!DOCTYPE svg PUBLIC "-//W3C//DTD SVG 1.1//EN" "http://www.w3.org/Graphics/SVG/1.1/DTD/svg11.dtd">
<svg width="800" height="600" version="1.1" xmlns:xlink="http://www.w3.org/1999/xlink" xmlns="http://www.w3.org/2000/svg">
  <defs>
    <clipPath id="clipPath1">
      <rect x="0" y="0" width="800" height="600" />
    </clipPath>
  </defs>
  <g clip-path="url(#clipPath1)">
    <polyline points="64.3645,556.894 64.3645,560.894" style="fill:none;stroke:black;stroke-width:1" shape-rendering="crispEdges" />
    <polyline points="80.1781,556.894 80.1781,560.894" style="fill:none;stroke:black;stroke-width:1" shape-rendering="crispEdges" />
    <polyline points="95.9916,556.894 95.9916,560.894" style="fill:none;stroke:black;stroke-width:1" shape-rendering="crispEdges" />
    <polyline points="127.6186,556.894 127.6186,560.894" style="fill:none;stroke:black;stroke-width:1" shape-rendering="crispEdges" />
    <polyline points="143.4322,556.894 143.4322,560.894" style="fill:none;stroke:black;stroke-width:1" shape-rendering="crispEdges" />
    <polyline points="159.2457,556.894 159.2457,560.894" style="fill:none;stroke:black;stroke-width:1" shape-rendering="crispEdges" />
    <polyline points="190.8727,556.894 190.8727,560.894" style="fill:none;stroke:black;stroke-width:1" shape-rendering="crispEdges" />
    <polyline points="206.6863,556.894 206.6863,560.894" style="fill:none;stroke:black;stroke-width:1" shape-rendering="crispEdges" />
    <polyline points="222.4998,556.894 222.4998,560.894" style="fill:none;stroke:black;stroke-width:1" shape-rendering="crispEdges" />
    <polyline points="254.1269,556.894 254.1269,560.894" style="fill:none;stroke:black;stroke-width:1" shape-rendering="crispEdges" />
    <polyline points="269.9404,556.894 269.9404,560.894" style="fill:none;stroke:black;stroke-width:1" shape-rendering="crispEdges" />
    <polyline points="285.7539,556.894 285.7539,560.894" style="fill:none;stroke:black;stroke-width:1" shape-rendering="crispEdges" />
    <polyline points="317.381,556.894 317.381,560.894" style="fill:none;stroke:black;stroke-width:1" shape-rendering="crispEdges" />
    <polyline points="333.1945,556.894 333.1945,560.894" style="fill:none;stroke:black;stroke-width:1" shape-rendering="crispEdges" />
    <polyline points="349.008,556.894 349.008,560.894" style="fill:none;stroke:black;stroke-width:1" shape-rendering="crispEdges" />
    <polyline points="380.6351,556.894 380.6351,560.894" style="fill:none;stroke:black;stroke-width:1" shape-rendering="crispEdges" />
    <polyline points="396.4486,556.894 396.4486,560.894" style="fill:none;stroke:black;stroke-width:1" shape-rendering="crispEdges" />
    <polyline points="412.2621,556.894 412.2621,560.894" style="fill:none;stroke:black;stroke-width:1" shape-rendering="crispEdges" />
    <polyline points="443.8892,556.894 443.8892,560.894" style="fill:none;stroke:black;stroke-width:1" shape-rendering="crispEdges" />
    <polyline points="459.7027,556.894 459.7027,560.894" style="fill:none;stroke:black;stroke-width:1" shape-rendering="crispEdges" />
    <polyline points="475.5162,556.894 475.5162,560.894" style="fill:none;stroke:black;stroke-width:1" shape-rendering="crispEdges" />
    <polyline points="507.1433,556.894 507.1433,560.894" style="fill:none;stroke:black;stroke-width:1" shape-rendering="crispEdges" />
    <polyline points="522.9568,556.894 522.9568,560.894" style="fill:none;stroke:black;stroke-width:1" shape-rendering="crispEdges" />
    <polyline points="538.7704,556.894 538.7704,560.894" style="fill:none;stroke:black;stroke-width:1" shape-rendering="crispEdges" />
    <polyline points="570.3974,556.894 570.3974,560.894" style="fill:none;stroke:black;stroke-width:1" shape-rendering="crispEdges" />
    <polyline points="586.2109,556.894 586.2109,560.894" style="fill:none;stroke:black;stroke-width:1" shape-rendering="crispEdges" />
    <polyline points="602.0245,556.894 602.0245,560.894" style="fill:none;stroke:black;stroke-width:1" shape-rendering="crispEdges" />
    <polyline points="633.6515,556.894 633.6515,560.894" style="fill:none;stroke:black;stroke-width:1" shape-rendering="crispEdges" />
    <polyline points="649.4651,556.894 649.4651,560.894" style="fill:none;stroke:black;stroke-width:1" shape-rendering="crispEdges" />
    <polyline points="665.2786,556.894 665.2786,560.894" style="fill:none;stroke:black;stroke-width:1" shape-rendering="crispEdges" />
    <polyline points="696.9056,556.894 696.9056,560.894" style="fill:none;stroke:black;stroke-width:1" shape-rendering="crispEdges" />
    <polyline points="712.7192,556.894 712.7192,560.894" style="fill:none;stroke:black;stroke-width:1" shape-rendering="crispEdges" />
    <polyline points="728.5327,556.894 728.5327,560.894" style="fill:none;stroke:black;stroke-width:1" shape-rendering="crispEdges" />
    <polyline points="760.1597,556.894 760.1597,560.894" style="fill:none;stroke:black;stroke-width:1" shape-rendering="crispEdges" />
    <polyline points="775.9733,556.894 775.9733,560.894" style="fill:none;stroke:black;stroke-width:1" shape-rendering="crispEdges" />
    <polyline points="48.551,543.8243 44.551,543.8243" style="fill:none;stroke:black;stroke-width:1" shape-rendering="crispEdges" />
    <polyline points="48.551,530.7546 44.551,530.7546" style="fill:none;stroke:black;stroke-width:1" shape-rendering="crispEdges" />
    <polyline points="48.551,517.6849 44.551,517.6849" style="fill:none;stroke:black;stroke-width:1" shape-rendering="crispEdges" />
    <polyline points="48.551,504.6152 44.551,504.6152" style="fill:none;stroke:black;stroke-width:1" shape-rendering="crispEdges" />
    <polyline points="48.551,478.4758 44.551,478.4758" style="fill:none;stroke:black;stroke-width:1" shape-rendering="crispEdges" />
    <polyline points="48.551,465.4061 44.551,465.4061" style="fill:none;stroke:black;stroke-width:1" shape-rendering="crispEdges" />
    <polyline points="48.551,452.3364 44.551,452.3364" style="fill:none;stroke:black;stroke-width:1" shape-rendering="crispEdges" />
    <polyline points="48.551,439.2667 44.551,439.2667" style="fill:none;stroke:black;stroke-width:1" shape-rendering="crispEdges" />
    <polyline points="48.551,413.1273 44.551,413.1273" style="fill:none;stroke:black;stroke-width:1" shape-rendering="crispEdges" />
    <polyline points="48.551,400.0576 44.551,400.0576" style="fill:none;stroke:black;stroke-width:1" shape-rendering="crispEdges" />
    <polyline points="48.551,386.9879 44.551,386.9879" style="fill:none;stroke:black;stroke-width:1" shape-rendering="crispEdges" />
    <polyline points="48.551,373.9182 44.551,373.9182" style="fill:none;stroke:black;stroke-width:1" shape-rendering="crispEdges" />
    <polyline points="48.551,347.7788 44.551,347.7788" style="fill:none;stroke:black;stroke-width:1" shape-rendering="crispEdges" />
    <polyline points="48.551,334.7091 44.551,334.7091" style="fill:none;stroke:black;stroke-width:1" shape-rendering="crispEdges" />
    <polyline points="48.551,321.6394 44.551,321.6394" style="fill:none;stroke:black;stroke-width:1" shape-rendering="crispEdges" />
    <polyline points="48.551,308.5697 44.551,308.5697" style="fill:none;stroke:black;stroke-width:1" shape-rendering="crispEdges" />
    <polyline points="48.551,282.4303 44.551,282.4303" style="fill:none;stroke:black;stroke-width:1" shape-rendering="crispEdges" />
    <polyline points="48.551,269.3606 44.551,269.3606" style="fill:none;stroke:black;stroke-width:1" shape-rendering="crispEdges" />
    <polyline points="48.551,256.2909 44.551,256.2909" style="fill:none;stroke:black;stroke-width:1" shape-rendering="crispEdges" />
    <polyline points="48.551,243.2212 44.551,243.2212" style="fill:none;stroke:black;stroke-width:1" shape-rendering="crispEdges" />
    <polyline points="48.551,217.0818 44.551,217.0818" style="fill:none;stroke:black;stroke-width:1" shape-rendering="crispEdges" />
    <polyline points="48.551,204.0121 44.551,204.0121" style="fill:none;stroke:black;stroke-width:1" shape-rendering="crispEdges" />
    <polyline points="48.551,190.9424 44.551,190.9424" style="fill:none;stroke:black;stroke-width:1" shape-rendering="crispEdges" />
    <polyline points="48.551,177.8727 44.551,177.8727" style="fill:none;stroke:black;stroke-width:1" shape-rendering="crispEdges" />
    <polyline points="48.551,151.7333 44.551,151.7333" style="fill:none;stroke:black;stroke-width:1" shape-rendering="crispEdges" />
    <polyline points="48.551,138.6636 44.551,138.6636" style="fill:none;stroke:black;stroke-width:1" shape-rendering="crispEdges" />
    <polyline points="48.551,125.5939 44.551,125.5939" style="fill:none;stroke:black;stroke-width:1" shape-rendering="crispEdges" />
    <polyline points="48.551,112.5242 44.551,112.5242" style="fill:none;stroke:black;stroke-width:1" shape-rendering="crispEdges" />
    <polyline points="48.551,86.3848 44.551,86.3848" style="fill:none;stroke:black;stroke-width:1" shape-rendering="crispEdges" />
    <polyline points="48.551,73.3151 44.551,73.3151" style="fill:none;stroke:black;stroke-width:1" shape-rendering="crispEdges" />
    <polyline points="48.551,60.2454 44.551,60.2454" style="fill:none;stroke:black;stroke-width:1" shape-rendering="crispEdges" />
    <polyline points="48.551,47.1757 44.551,47.1757" style="fill:none;stroke:black;stroke-width:1" shape-rendering="crispEdges" />
    <text dominant-baseline="hanging" text-anchor="middle" transform="translate(48.551,567.894)" font-family="Segoe UI" font-size="12" font-weight="400" fill="black">0M</text>
    <text dominant-baseline="hanging" text-anchor="middle" transform="translate(111.8051,567.894)" font-family="Segoe UI" font-size="12" font-weight="400" fill="black">2M</text>
    <text dominant-baseline="hanging" text-anchor="middle" transform="translate(175.0592,567.894)" font-family="Segoe UI" font-size="12" font-weight="400" fill="black">4M</text>
    <text dominant-baseline="hanging" text-anchor="middle" transform="translate(238.3133,567.894)" font-family="Segoe UI" font-size="12" font-weight="400" fill="black">6M</text>
    <text dominant-baseline="hanging" text-anchor="middle" transform="translate(301.5674,567.894)" font-family="Segoe UI" font-size="12" font-weight="400" fill="black">8M</text>
    <text dominant-baseline="hanging" text-anchor="middle" transform="translate(364.8216,567.894)" font-family="Segoe UI" font-size="12" font-weight="400" fill="black">10M</text>
    <text dominant-baseline="hanging" text-anchor="middle" transform="translate(428.0757,567.894)" font-family="Segoe UI" font-size="12" font-weight="400" fill="black">12M</text>
    <text dominant-baseline="hanging" text-anchor="middle" transform="translate(491.3298,567.894)" font-family="Segoe UI" font-size="12" font-weight="400" fill="black">14M</text>
    <text dominant-baseline="hanging" text-anchor="middle" transform="translate(554.5839,567.894)" font-family="Segoe UI" font-size="12" font-weight="400" fill="black">16M</text>
    <text dominant-baseline="hanging" text-anchor="middle" transform="translate(617.838,567.894)" font-family="Segoe UI" font-size="12" font-weight="400" fill="black">18M</text>
    <text dominant-baseline="hanging" text-anchor="middle" transform="translate(681.0921,567.894)" font-family="Segoe UI" font-size="12" font-weight="400" fill="black">20M</text>
    <text dominant-baseline="hanging" text-anchor="middle" transform="translate(744.3462,567.894)" font-family="Segoe UI" font-size="12" font-weight="400" fill="black">22M</text>
    <polyline points="48.551,34.106 48.551,556.894" style="fill:none;stroke:rgb(0,0,0);stroke-width:1;stroke-opacity:0.25098039215686274" shape-rendering="crispEdges" />
    <polyline points="111.8051,34.106 111.8051,556.894" style="fill:none;stroke:rgb(0,0,0);stroke-width:1;stroke-opacity:0.25098039215686274" shape-rendering="crispEdges" />
    <polyline points="175.0592,34.106 175.0592,556.894" style="fill:none;stroke:rgb(0,0,0);stroke-width:1;stroke-opacity:0.25098039215686274" shape-rendering="crispEdges" />
    <polyline points="238.3133,34.106 238.3133,556.894" style="fill:none;stroke:rgb(0,0,0);stroke-width:1;stroke-opacity:0.25098039215686274" shape-rendering="crispEdges" />
    <polyline points="301.5674,34.106 301.5674,556.894" style="fill:none;stroke:rgb(0,0,0);stroke-width:1;stroke-opacity:0.25098039215686274" shape-rendering="crispEdges" />
    <polyline points="364.8216,34.106 364.8216,556.894" style="fill:none;stroke:rgb(0,0,0);stroke-width:1;stroke-opacity:0.25098039215686274" shape-rendering="crispEdges" />
    <polyline points="428.0757,34.106 428.0757,556.894" style="fill:none;stroke:rgb(0,0,0);stroke-width:1;stroke-opacity:0.25098039215686274" shape-rendering="crispEdges" />
    <polyline points="491.3298,34.106 491.3298,556.894" style="fill:none;stroke:rgb(0,0,0);stroke-width:1;stroke-opacity:0.25098039215686274" shape-rendering="crispEdges" />
    <polyline points="554.5839,34.106 554.5839,556.894" style="fill:none;stroke:rgb(0,0,0);stroke-width:1;stroke-opacity:0.25098039215686274" shape-rendering="crispEdges" />
    <polyline points="617.838,34.106 617.838,556.894" style="fill:none;stroke:rgb(0,0,0);stroke-width:1;stroke-opacity:0.25098039215686274" shape-rendering="crispEdges" />
    <polyline points="681.0921,34.106 681.0921,556.894" style="fill:none;stroke:rgb(0,0,0);stroke-width:1;stroke-opacity:0.25098039215686274" shape-rendering="crispEdges" />
    <polyline points="744.3462,34.106 744.3462,556.894" style="fill:none;stroke:rgb(0,0,0);stroke-width:1;stroke-opacity:0.25098039215686274" shape-rendering="crispEdges" />
    <polyline points="48.551,556.894 48.551,563.894" style="fill:none;stroke:black;stroke-width:1" shape-rendering="crispEdges" />
    <polyline points="111.8051,556.894 111.8051,563.894" style="fill:none;stroke:black;stroke-width:1" shape-rendering="crispEdges" />
    <polyline points="175.0592,556.894 175.0592,563.894" style="fill:none;stroke:black;stroke-width:1" shape-rendering="crispEdges" />
    <polyline points="238.3133,556.894 238.3133,563.894" style="fill:none;stroke:black;stroke-width:1" shape-rendering="crispEdges" />
    <polyline points="301.5674,556.894 301.5674,563.894" style="fill:none;stroke:black;stroke-width:1" shape-rendering="crispEdges" />
    <polyline points="364.8216,556.894 364.8216,563.894" style="fill:none;stroke:black;stroke-width:1" shape-rendering="crispEdges" />
    <polyline points="428.0757,556.894 428.0757,563.894" style="fill:none;stroke:black;stroke-width:1" shape-rendering="crispEdges" />
    <polyline points="491.3298,556.894 491.3298,563.894" style="fill:none;stroke:black;stroke-width:1" shape-rendering="crispEdges" />
    <polyline points="554.5839,556.894 554.5839,563.894" style="fill:none;stroke:black;stroke-width:1" shape-rendering="crispEdges" />
    <polyline points="617.838,556.894 617.838,563.894" style="fill:none;stroke:black;stroke-width:1" shape-rendering="crispEdges" />
    <polyline points="681.0921,556.894 681.0921,563.894" style="fill:none;stroke:black;stroke-width:1" shape-rendering="crispEdges" />
    <polyline points="744.3462,556.894 744.3462,563.894" style="fill:none;stroke:black;stroke-width:1" shape-rendering="crispEdges" />
    <text dominant-baseline="baseline" text-anchor="middle" transform="translate(415.8993,588)" font-family="Segoe UI" font-size="12" font-weight="400" fill="black">Meses</text>
    <text dominant-baseline="middle" text-anchor="end" transform="translate(37.551,556.894)" font-family="Segoe UI" font-size="12" font-weight="400" fill="black">-0.4</text>
    <text dominant-baseline="middle" text-anchor="end" transform="translate(37.551,491.5455)" font-family="Segoe UI" font-size="12" font-weight="400" fill="black">-0.3</text>
    <text dominant-baseline="middle" text-anchor="end" transform="translate(37.551,426.197)" font-family="Segoe UI" font-size="12" font-weight="400" fill="black">-0.2</text>
    <text dominant-baseline="middle" text-anchor="end" transform="translate(37.551,360.8485)" font-family="Segoe UI" font-size="12" font-weight="400" fill="black">-0.1</text>
    <text dominant-baseline="middle" text-anchor="end" transform="translate(37.551,295.5)" font-family="Segoe UI" font-size="12" font-weight="400" fill="black">0</text>
    <text dominant-baseline="middle" text-anchor="end" transform="translate(37.551,230.1515)" font-family="Segoe UI" font-size="12" font-weight="400" fill="black">0.1</text>
    <text dominant-baseline="middle" text-anchor="end" transform="translate(37.551,164.803)" font-family="Segoe UI" font-size="12" font-weight="400" fill="black">0.2</text>
    <text dominant-baseline="middle" text-anchor="end" transform="translate(37.551,99.4545)" font-family="Segoe UI" font-size="12" font-weight="400" fill="black">0.3</text>
    <text dominant-baseline="middle" text-anchor="end" transform="translate(37.551,34.106)" font-family="Segoe UI" font-size="12" font-weight="400" fill="black">0.4</text>
    <polyline points="48.551,556.894 783.2475,556.894" style="fill:none;stroke:rgb(0,0,0);stroke-width:1;stroke-opacity:0.25098039215686274" shape-rendering="crispEdges" />
    <polyline points="48.551,491.5455 783.2475,491.5455" style="fill:none;stroke:rgb(0,0,0);stroke-width:1;stroke-opacity:0.25098039215686274" shape-rendering="crispEdges" />
    <polyline points="48.551,426.197 783.2475,426.197" style="fill:none;stroke:rgb(0,0,0);stroke-width:1;stroke-opacity:0.25098039215686274" shape-rendering="crispEdges" />
    <polyline points="48.551,360.8485 783.2475,360.8485" style="fill:none;stroke:rgb(0,0,0);stroke-width:1;stroke-opacity:0.25098039215686274" shape-rendering="crispEdges" />
    <polyline points="48.551,295.5 783.2475,295.5" style="fill:none;stroke:rgb(0,0,0);stroke-width:1;stroke-opacity:0.25098039215686274" shape-rendering="crispEdges" />
    <polyline points="48.551,230.1515 783.2475,230.1515" style="fill:none;stroke:rgb(0,0,0);stroke-width:1;stroke-opacity:0.25098039215686274" shape-rendering="crispEdges" />
    <polyline points="48.551,164.803 783.2475,164.803" style="fill:none;stroke:rgb(0,0,0);stroke-width:1;stroke-opacity:0.25098039215686274" shape-rendering="crispEdges" />
    <polyline points="48.551,99.4545 783.2475,99.4545" style="fill:none;stroke:rgb(0,0,0);stroke-width:1;stroke-opacity:0.25098039215686274" shape-rendering="crispEdges" />
    <polyline points="48.551,34.106 783.2475,34.106" style="fill:none;stroke:rgb(0,0,0);stroke-width:1;stroke-opacity:0.25098039215686274" shape-rendering="crispEdges" />
    <polyline points="48.551,556.894 41.551,556.894" style="fill:none;stroke:black;stroke-width:1" shape-rendering="crispEdges" />
    <polyline points="48.551,491.5455 41.551,491.5455" style="fill:none;stroke:black;stroke-width:1" shape-rendering="crispEdges" />
    <polyline points="48.551,426.197 41.551,426.197" style="fill:none;stroke:black;stroke-width:1" shape-rendering="crispEdges" />
    <polyline points="48.551,360.8485 41.551,360.8485" style="fill:none;stroke:black;stroke-width:1" shape-rendering="crispEdges" />
    <polyline points="48.551,295.5 41.551,295.5" style="fill:none;stroke:black;stroke-width:1" shape-rendering="crispEdges" />
    <polyline points="48.551,230.1515 41.551,230.1515" style="fill:none;stroke:black;stroke-width:1" shape-rendering="crispEdges" />
    <polyline points="48.551,164.803 41.551,164.803" style="fill:none;stroke:black;stroke-width:1" shape-rendering="crispEdges" />
    <polyline points="48.551,99.4545 41.551,99.4545" style="fill:none;stroke:black;stroke-width:1" shape-rendering="crispEdges" />
    <polyline points="48.551,34.106 41.551,34.106" style="fill:none;stroke:black;stroke-width:1" shape-rendering="crispEdges" />
    <text dominant-baseline="hanging" text-anchor="middle" transform="translate(12,295.5) rotate(-90)" font-family="Segoe UI" font-size="12" font-weight="400" fill="black">Taxa</text>
  </g>
  <defs>
    <clipPath id="clipPath2">
      <rect x="48.551" y="34.106" width="734.6965" height="522.788" />
    </clipPath>
  </defs>
  <g clip-path="url(#clipPath2)">
    <polyline points="48.551,430.5561 80.1781,421.911 111.8051,412.7205 143.4322,404.192 175.0592,396.0084 206.6863,387.8995 301.5674,365.7738 396.4486,346.2787 491.3298,329.4527 586.2109,314.4326 775.9733,289.2554" style="fill:none;stroke:rgb(78,154,6);stroke-width:2;stroke-linejoin:bevel" />
    <ellipse cx="48.551" cy="430.5561" rx="3" ry="3" style="fill:rgb(78,154,6);stroke:none;" shape-rendering="geometricPrecision" />
    <ellipse cx="80.1781" cy="421.911" rx="3" ry="3" style="fill:rgb(78,154,6);stroke:none;" shape-rendering="geometricPrecision" />
    <ellipse cx="111.8051" cy="412.7205" rx="3" ry="3" style="fill:rgb(78,154,6);stroke:none;" shape-rendering="geometricPrecision" />
    <ellipse cx="143.4322" cy="404.192" rx="3" ry="3" style="fill:rgb(78,154,6);stroke:none;" shape-rendering="geometricPrecision" />
    <ellipse cx="175.0592" cy="396.0084" rx="3" ry="3" style="fill:rgb(78,154,6);stroke:none;" shape-rendering="geometricPrecision" />
    <ellipse cx="206.6863" cy="387.8995" rx="3" ry="3" style="fill:rgb(78,154,6);stroke:none;" shape-rendering="geometricPrecision" />
    <ellipse cx="301.5674" cy="365.7738" rx="3" ry="3" style="fill:rgb(78,154,6);stroke:none;" shape-rendering="geometricPrecision" />
    <ellipse cx="396.4486" cy="346.2787" rx="3" ry="3" style="fill:rgb(78,154,6);stroke:none;" shape-rendering="geometricPrecision" />
    <ellipse cx="491.3298" cy="329.4527" rx="3" ry="3" style="fill:rgb(78,154,6);stroke:none;" shape-rendering="geometricPrecision" />
    <ellipse cx="586.2109" cy="314.4326" rx="3" ry="3" style="fill:rgb(78,154,6);stroke:none;" shape-rendering="geometricPrecision" />
    <ellipse cx="775.9733" cy="289.2554" rx="3" ry="3" style="fill:rgb(78,154,6);stroke:none;" shape-rendering="geometricPrecision" />
    <polyline points="48.551,424.9219 80.1781,416.9179 111.8051,408.4038 143.4322,400.4979 175.0592,392.9065 206.6863,385.3788 301.5674,364.8056 396.4486,346.628 491.3298,330.8891 586.2109,316.7888 775.9733,293.0037" style="fill:none;stroke:rgb(200,141,0);stroke-width:2;stroke-linejoin:bevel" />
    <ellipse cx="48.551" cy="424.9219" rx="3" ry="3" style="fill:rgb(200,141,0);stroke:none;" shape-rendering="geometricPrecision" />
    <ellipse cx="80.1781" cy="416.9179" rx="3" ry="3" style="fill:rgb(200,141,0);stroke:none;" shape-rendering="geometricPrecision" />
    <ellipse cx="111.8051" cy="408.4038" rx="3" ry="3" style="fill:rgb(200,141,0);stroke:none;" shape-rendering="geometricPrecision" />
    <ellipse cx="143.4322" cy="400.4979" rx="3" ry="3" style="fill:rgb(200,141,0);stroke:none;" shape-rendering="geometricPrecision" />
    <ellipse cx="175.0592" cy="392.9065" rx="3" ry="3" style="fill:rgb(200,141,0);stroke:none;" shape-rendering="geometricPrecision" />
    <ellipse cx="206.6863" cy="385.3788" rx="3" ry="3" style="fill:rgb(200,141,0);stroke:none;" shape-rendering="geometricPrecision" />
    <ellipse cx="301.5674" cy="364.8056" rx="3" ry="3" style="fill:rgb(200,141,0);stroke:none;" shape-rendering="geometricPrecision" />
    <ellipse cx="396.4486" cy="346.628" rx="3" ry="3" style="fill:rgb(200,141,0);stroke:none;" shape-rendering="geometricPrecision" />
    <ellipse cx="491.3298" cy="330.8891" rx="3" ry="3" style="fill:rgb(200,141,0);stroke:none;" shape-rendering="geometricPrecision" />
    <ellipse cx="586.2109" cy="316.7888" rx="3" ry="3" style="fill:rgb(200,141,0);stroke:none;" shape-rendering="geometricPrecision" />
    <ellipse cx="775.9733" cy="293.0037" rx="3" ry="3" style="fill:rgb(200,141,0);stroke:none;" shape-rendering="geometricPrecision" />
    <polyline points="48.551,421.8851 80.1781,413.5797 111.8051,404.8146 143.4322,396.7438 175.0592,389.0596 206.6863,381.5072 301.5674,361.2445 396.4486,343.8698 491.3298,329.3048 586.2109,316.7057 775.9733,296.665" style="fill:none;stroke:rgb(204,0,0);stroke-width:2;stroke-linejoin:bevel" />
    <ellipse cx="48.551" cy="421.8851" rx="3" ry="3" style="fill:rgb(204,0,0);stroke:none;" shape-rendering="geometricPrecision" />
    <ellipse cx="80.1781" cy="413.5797" rx="3" ry="3" style="fill:rgb(204,0,0);stroke:none;" shape-rendering="geometricPrecision" />
    <ellipse cx="111.8051" cy="404.8146" rx="3" ry="3" style="fill:rgb(204,0,0);stroke:none;" shape-rendering="geometricPrecision" />
    <ellipse cx="143.4322" cy="396.7438" rx="3" ry="3" style="fill:rgb(204,0,0);stroke:none;" shape-rendering="geometricPrecision" />
    <ellipse cx="175.0592" cy="389.0596" rx="3" ry="3" style="fill:rgb(204,0,0);stroke:none;" shape-rendering="geometricPrecision" />
    <ellipse cx="206.6863" cy="381.5072" rx="3" ry="3" style="fill:rgb(204,0,0);stroke:none;" shape-rendering="geometricPrecision" />
    <ellipse cx="301.5674" cy="361.2445" rx="3" ry="3" style="fill:rgb(204,0,0);stroke:none;" shape-rendering="geometricPrecision" />
    <ellipse cx="396.4486" cy="343.8698" rx="3" ry="3" style="fill:rgb(204,0,0);stroke:none;" shape-rendering="geometricPrecision" />
    <ellipse cx="491.3298" cy="329.3048" rx="3" ry="3" style="fill:rgb(204,0,0);stroke:none;" shape-rendering="geometricPrecision" />
    <ellipse cx="586.2109" cy="316.7057" rx="3" ry="3" style="fill:rgb(204,0,0);stroke:none;" shape-rendering="geometricPrecision" />
    <ellipse cx="775.9733" cy="296.665" rx="3" ry="3" style="fill:rgb(204,0,0);stroke:none;" shape-rendering="geometricPrecision" />
    <polyline points="48.551,344.5305 80.1781,343.875 111.8051,343.0829 143.4322,342.255 175.0592,341.3716 206.6863,340.4053 301.5674,337.2619 396.4486,333.7887 491.3298,330.1595 586.2109,326.3303 775.9733,318.3338" style="fill:none;stroke:rgb(32,74,135);stroke-width:2;stroke-linejoin:bevel" />
    <ellipse cx="48.551" cy="344.5305" rx="3" ry="3" style="fill:rgb(32,74,135);stroke:none;" shape-rendering="geometricPrecision" />
    <ellipse cx="80.1781" cy="343.875" rx="3" ry="3" style="fill:rgb(32,74,135);stroke:none;" shape-rendering="geometricPrecision" />
    <ellipse cx="111.8051" cy="343.0829" rx="3" ry="3" style="fill:rgb(32,74,135);stroke:none;" shape-rendering="geometricPrecision" />
    <ellipse cx="143.4322" cy="342.255" rx="3" ry="3" style="fill:rgb(32,74,135);stroke:none;" shape-rendering="geometricPrecision" />
    <ellipse cx="175.0592" cy="341.3716" rx="3" ry="3" style="fill:rgb(32,74,135);stroke:none;" shape-rendering="geometricPrecision" />
    <ellipse cx="206.6863" cy="340.4053" rx="3" ry="3" style="fill:rgb(32,74,135);stroke:none;" shape-rendering="geometricPrecision" />
    <ellipse cx="301.5674" cy="337.2619" rx="3" ry="3" style="fill:rgb(32,74,135);stroke:none;" shape-rendering="geometricPrecision" />
    <ellipse cx="396.4486" cy="333.7887" rx="3" ry="3" style="fill:rgb(32,74,135);stroke:none;" shape-rendering="geometricPrecision" />
    <ellipse cx="491.3298" cy="330.1595" rx="3" ry="3" style="fill:rgb(32,74,135);stroke:none;" shape-rendering="geometricPrecision" />
    <ellipse cx="586.2109" cy="326.3303" rx="3" ry="3" style="fill:rgb(32,74,135);stroke:none;" shape-rendering="geometricPrecision" />
    <ellipse cx="775.9733" cy="318.3338" rx="3" ry="3" style="fill:rgb(32,74,135);stroke:none;" shape-rendering="geometricPrecision" />
    <polyline points="48.551,295.1691 80.1781,299.1194 111.8051,303.1913 143.4322,306.8453 175.0592,310.2322 206.6863,313.4661 301.5674,321.6089 396.4486,327.8373 491.3298,332.3631 586.2109,335.6093 775.9733,338.9272" style="fill:none;stroke:rgb(255,0,0);stroke-width:2;stroke-linejoin:bevel" />
    <ellipse cx="48.551" cy="295.1691" rx="3" ry="3" style="fill:rgb(255,0,0);stroke:none;" shape-rendering="geometricPrecision" />
    <ellipse cx="80.1781" cy="299.1194" rx="3" ry="3" style="fill:rgb(255,0,0);stroke:none;" shape-rendering="geometricPrecision" />
    <ellipse cx="111.8051" cy="303.1913" rx="3" ry="3" style="fill:rgb(255,0,0);stroke:none;" shape-rendering="geometricPrecision" />
    <ellipse cx="143.4322" cy="306.8453" rx="3" ry="3" style="fill:rgb(255,0,0);stroke:none;" shape-rendering="geometricPrecision" />
    <ellipse cx="175.0592" cy="310.2322" rx="3" ry="3" style="fill:rgb(255,0,0);stroke:none;" shape-rendering="geometricPrecision" />
    <ellipse cx="206.6863" cy="313.4661" rx="3" ry="3" style="fill:rgb(255,0,0);stroke:none;" shape-rendering="geometricPrecision" />
    <ellipse cx="301.5674" cy="321.6089" rx="3" ry="3" style="fill:rgb(255,0,0);stroke:none;" shape-rendering="geometricPrecision" />
    <ellipse cx="396.4486" cy="327.8373" rx="3" ry="3" style="fill:rgb(255,0,0);stroke:none;" shape-rendering="geometricPrecision" />
    <ellipse cx="491.3298" cy="332.3631" rx="3" ry="3" style="fill:rgb(255,0,0);stroke:none;" shape-rendering="geometricPrecision" />
    <ellipse cx="586.2109" cy="335.6093" rx="3" ry="3" style="fill:rgb(255,0,0);stroke:none;" shape-rendering="geometricPrecision" />
    <ellipse cx="775.9733" cy="338.9272" rx="3" ry="3" style="fill:rgb(255,0,0);stroke:none;" shape-rendering="geometricPrecision" />
    <polyline points="48.551,330.212 80.1781,330.771 111.8051,331.295 143.4322,331.7125 175.0592,332.0472 206.6863,332.3113 301.5674,332.6533 396.4486,332.4268 491.3298,331.7546 586.2109,330.7072 775.9733,327.7469" style="fill:none;stroke:rgb(255,165,0);stroke-width:2;stroke-linejoin:bevel" />
    <ellipse cx="48.551" cy="330.212" rx="3" ry="3" style="fill:rgb(255,165,0);stroke:none;" shape-rendering="geometricPrecision" />
    <ellipse cx="80.1781" cy="330.771" rx="3" ry="3" style="fill:rgb(255,165,0);stroke:none;" shape-rendering="geometricPrecision" />
    <ellipse cx="111.8051" cy="331.295" rx="3" ry="3" style="fill:rgb(255,165,0);stroke:none;" shape-rendering="geometricPrecision" />
    <ellipse cx="143.4322" cy="331.7125" rx="3" ry="3" style="fill:rgb(255,165,0);stroke:none;" shape-rendering="geometricPrecision" />
    <ellipse cx="175.0592" cy="332.0472" rx="3" ry="3" style="fill:rgb(255,165,0);stroke:none;" shape-rendering="geometricPrecision" />
    <ellipse cx="206.6863" cy="332.3113" rx="3" ry="3" style="fill:rgb(255,165,0);stroke:none;" shape-rendering="geometricPrecision" />
    <ellipse cx="301.5674" cy="332.6533" rx="3" ry="3" style="fill:rgb(255,165,0);stroke:none;" shape-rendering="geometricPrecision" />
    <ellipse cx="396.4486" cy="332.4268" rx="3" ry="3" style="fill:rgb(255,165,0);stroke:none;" shape-rendering="geometricPrecision" />
    <ellipse cx="491.3298" cy="331.7546" rx="3" ry="3" style="fill:rgb(255,165,0);stroke:none;" shape-rendering="geometricPrecision" />
    <ellipse cx="586.2109" cy="330.7072" rx="3" ry="3" style="fill:rgb(255,165,0);stroke:none;" shape-rendering="geometricPrecision" />
    <ellipse cx="775.9733" cy="327.7469" rx="3" ry="3" style="fill:rgb(255,165,0);stroke:none;" shape-rendering="geometricPrecision" />
    <polyline points="48.551,397.3289 80.1781,392.3255 111.8051,386.9391 143.4322,381.8746 175.0592,376.9513 206.6863,372.0074 301.5674,358.1489 396.4486,345.4191 491.3298,333.9578 586.2109,323.2754 775.9733,304.1314" style="fill:none;stroke:rgb(255,255,0);stroke-width:2;stroke-linejoin:bevel" />
    <ellipse cx="48.551" cy="397.3289" rx="3" ry="3" style="fill:rgb(255,255,0);stroke:none;" shape-rendering="geometricPrecision" />
    <ellipse cx="80.1781" cy="392.3255" rx="3" ry="3" style="fill:rgb(255,255,0);stroke:none;" shape-rendering="geometricPrecision" />
    <ellipse cx="111.8051" cy="386.9391" rx="3" ry="3" style="fill:rgb(255,255,0);stroke:none;" shape-rendering="geometricPrecision" />
    <ellipse cx="143.4322" cy="381.8746" rx="3" ry="3" style="fill:rgb(255,255,0);stroke:none;" shape-rendering="geometricPrecision" />
    <ellipse cx="175.0592" cy="376.9513" rx="3" ry="3" style="fill:rgb(255,255,0);stroke:none;" shape-rendering="geometricPrecision" />
    <ellipse cx="206.6863" cy="372.0074" rx="3" ry="3" style="fill:rgb(255,255,0);stroke:none;" shape-rendering="geometricPrecision" />
    <ellipse cx="301.5674" cy="358.1489" rx="3" ry="3" style="fill:rgb(255,255,0);stroke:none;" shape-rendering="geometricPrecision" />
    <ellipse cx="396.4486" cy="345.4191" rx="3" ry="3" style="fill:rgb(255,255,0);stroke:none;" shape-rendering="geometricPrecision" />
    <ellipse cx="491.3298" cy="333.9578" rx="3" ry="3" style="fill:rgb(255,255,0);stroke:none;" shape-rendering="geometricPrecision" />
    <ellipse cx="586.2109" cy="323.2754" rx="3" ry="3" style="fill:rgb(255,255,0);stroke:none;" shape-rendering="geometricPrecision" />
    <ellipse cx="775.9733" cy="304.1314" rx="3" ry="3" style="fill:rgb(255,255,0);stroke:none;" shape-rendering="geometricPrecision" />
    <polyline points="48.551,302.0776 80.1781,304.8569 111.8051,307.7685 143.4322,310.4279 175.0592,312.9386 206.6863,315.3839 301.5674,321.815 396.4486,327.1391 491.3298,331.4182 586.2109,334.9355 775.9733,339.9968" style="fill:none;stroke:rgb(0,128,0);stroke-width:2;stroke-linejoin:bevel" />
    <ellipse cx="48.551" cy="302.0776" rx="3" ry="3" style="fill:rgb(0,128,0);stroke:none;" shape-rendering="geometricPrecision" />
    <ellipse cx="80.1781" cy="304.8569" rx="3" ry="3" style="fill:rgb(0,128,0);stroke:none;" shape-rendering="geometricPrecision" />
    <ellipse cx="111.8051" cy="307.7685" rx="3" ry="3" style="fill:rgb(0,128,0);stroke:none;" shape-rendering="geometricPrecision" />
    <ellipse cx="143.4322" cy="310.4279" rx="3" ry="3" style="fill:rgb(0,128,0);stroke:none;" shape-rendering="geometricPrecision" />
    <ellipse cx="175.0592" cy="312.9386" rx="3" ry="3" style="fill:rgb(0,128,0);stroke:none;" shape-rendering="geometricPrecision" />
    <ellipse cx="206.6863" cy="315.3839" rx="3" ry="3" style="fill:rgb(0,128,0);stroke:none;" shape-rendering="geometricPrecision" />
    <ellipse cx="301.5674" cy="321.815" rx="3" ry="3" style="fill:rgb(0,128,0);stroke:none;" shape-rendering="geometricPrecision" />
    <ellipse cx="396.4486" cy="327.1391" rx="3" ry="3" style="fill:rgb(0,128,0);stroke:none;" shape-rendering="geometricPrecision" />
    <ellipse cx="491.3298" cy="331.4182" rx="3" ry="3" style="fill:rgb(0,128,0);stroke:none;" shape-rendering="geometricPrecision" />
    <ellipse cx="586.2109" cy="334.9355" rx="3" ry="3" style="fill:rgb(0,128,0);stroke:none;" shape-rendering="geometricPrecision" />
    <ellipse cx="775.9733" cy="339.9968" rx="3" ry="3" style="fill:rgb(0,128,0);stroke:none;" shape-rendering="geometricPrecision" />
    <polyline points="48.551,384.9903 80.1781,382.4357 111.8051,379.6478 143.4322,376.9897 175.0592,374.3704 206.6863,371.704 301.5674,364.0262 396.4486,356.6899 491.3298,349.8305 586.2109,343.2011 775.9733,330.6846" style="fill:none;stroke:rgb(0,0,255);stroke-width:2;stroke-linejoin:bevel" />
    <ellipse cx="48.551" cy="384.9903" rx="3" ry="3" style="fill:rgb(0,0,255);stroke:none;" shape-rendering="geometricPrecision" />
    <ellipse cx="80.1781" cy="382.4357" rx="3" ry="3" style="fill:rgb(0,0,255);stroke:none;" shape-rendering="geometricPrecision" />
    <ellipse cx="111.8051" cy="379.6478" rx="3" ry="3" style="fill:rgb(0,0,255);stroke:none;" shape-rendering="geometricPrecision" />
    <ellipse cx="143.4322" cy="376.9897" rx="3" ry="3" style="fill:rgb(0,0,255);stroke:none;" shape-rendering="geometricPrecision" />
    <ellipse cx="175.0592" cy="374.3704" rx="3" ry="3" style="fill:rgb(0,0,255);stroke:none;" shape-rendering="geometricPrecision" />
    <ellipse cx="206.6863" cy="371.704" rx="3" ry="3" style="fill:rgb(0,0,255);stroke:none;" shape-rendering="geometricPrecision" />
    <ellipse cx="301.5674" cy="364.0262" rx="3" ry="3" style="fill:rgb(0,0,255);stroke:none;" shape-rendering="geometricPrecision" />
    <ellipse cx="396.4486" cy="356.6899" rx="3" ry="3" style="fill:rgb(0,0,255);stroke:none;" shape-rendering="geometricPrecision" />
    <ellipse cx="491.3298" cy="349.8305" rx="3" ry="3" style="fill:rgb(0,0,255);stroke:none;" shape-rendering="geometricPrecision" />
    <ellipse cx="586.2109" cy="343.2011" rx="3" ry="3" style="fill:rgb(0,0,255);stroke:none;" shape-rendering="geometricPrecision" />
    <ellipse cx="775.9733" cy="330.6846" rx="3" ry="3" style="fill:rgb(0,0,255);stroke:none;" shape-rendering="geometricPrecision" />
    <polyline points="48.551,313.8455 80.1781,317.5196 111.8051,321.2986 143.4322,324.6816 175.0592,327.8093 206.6863,330.7873 301.5674,338.2381 396.4486,343.8681 491.3298,347.8902 586.2109,350.7018 775.9733,353.3438" style="fill:none;stroke:rgb(75,0,130);stroke-width:2;stroke-linejoin:bevel" />
    <ellipse cx="48.551" cy="313.8455" rx="3" ry="3" style="fill:rgb(75,0,130);stroke:none;" shape-rendering="geometricPrecision" />
    <ellipse cx="80.1781" cy="317.5196" rx="3" ry="3" style="fill:rgb(75,0,130);stroke:none;" shape-rendering="geometricPrecision" />
    <ellipse cx="111.8051" cy="321.2986" rx="3" ry="3" style="fill:rgb(75,0,130);stroke:none;" shape-rendering="geometricPrecision" />
    <ellipse cx="143.4322" cy="324.6816" rx="3" ry="3" style="fill:rgb(75,0,130);stroke:none;" shape-rendering="geometricPrecision" />
    <ellipse cx="175.0592" cy="327.8093" rx="3" ry="3" style="fill:rgb(75,0,130);stroke:none;" shape-rendering="geometricPrecision" />
    <ellipse cx="206.6863" cy="330.7873" rx="3" ry="3" style="fill:rgb(75,0,130);stroke:none;" shape-rendering="geometricPrecision" />
    <ellipse cx="301.5674" cy="338.2381" rx="3" ry="3" style="fill:rgb(75,0,130);stroke:none;" shape-rendering="geometricPrecision" />
    <ellipse cx="396.4486" cy="343.8681" rx="3" ry="3" style="fill:rgb(75,0,130);stroke:none;" shape-rendering="geometricPrecision" />
    <ellipse cx="491.3298" cy="347.8902" rx="3" ry="3" style="fill:rgb(75,0,130);stroke:none;" shape-rendering="geometricPrecision" />
    <ellipse cx="586.2109" cy="350.7018" rx="3" ry="3" style="fill:rgb(75,0,130);stroke:none;" shape-rendering="geometricPrecision" />
    <ellipse cx="775.9733" cy="353.3438" rx="3" ry="3" style="fill:rgb(75,0,130);stroke:none;" shape-rendering="geometricPrecision" />
    <polyline points="48.551,443.5166 80.1781,435.9342 111.8051,427.8223 143.4322,420.2453 175.0592,412.9272 206.6863,405.6277 301.5674,385.4419 396.4486,367.2857 491.3298,351.2853 586.2109,336.6967 775.9733,311.4338" style="fill:none;stroke:rgb(238,130,238);stroke-width:2;stroke-linejoin:bevel" />
    <ellipse cx="48.551" cy="443.5166" rx="3" ry="3" style="fill:rgb(238,130,238);stroke:none;" shape-rendering="geometricPrecision" />
    <ellipse cx="80.1781" cy="435.9342" rx="3" ry="3" style="fill:rgb(238,130,238);stroke:none;" shape-rendering="geometricPrecision" />
    <ellipse cx="111.8051" cy="427.8223" rx="3" ry="3" style="fill:rgb(238,130,238);stroke:none;" shape-rendering="geometricPrecision" />
    <ellipse cx="143.4322" cy="420.2453" rx="3" ry="3" style="fill:rgb(238,130,238);stroke:none;" shape-rendering="geometricPrecision" />
    <ellipse cx="175.0592" cy="412.9272" rx="3" ry="3" style="fill:rgb(238,130,238);stroke:none;" shape-rendering="geometricPrecision" />
    <ellipse cx="206.6863" cy="405.6277" rx="3" ry="3" style="fill:rgb(238,130,238);stroke:none;" shape-rendering="geometricPrecision" />
    <ellipse cx="301.5674" cy="385.4419" rx="3" ry="3" style="fill:rgb(238,130,238);stroke:none;" shape-rendering="geometricPrecision" />
    <ellipse cx="396.4486" cy="367.2857" rx="3" ry="3" style="fill:rgb(238,130,238);stroke:none;" shape-rendering="geometricPrecision" />
    <ellipse cx="491.3298" cy="351.2853" rx="3" ry="3" style="fill:rgb(238,130,238);stroke:none;" shape-rendering="geometricPrecision" />
    <ellipse cx="586.2109" cy="336.6967" rx="3" ry="3" style="fill:rgb(238,130,238);stroke:none;" shape-rendering="geometricPrecision" />
    <ellipse cx="775.9733" cy="311.4338" rx="3" ry="3" style="fill:rgb(238,130,238);stroke:none;" shape-rendering="geometricPrecision" />
    <polyline points="48.551,428.7875 80.1781,423.442 111.8051,417.7061 143.4322,412.3319 175.0592,407.1255 206.6863,401.9163 301.5674,387.4216 396.4486,374.2616 491.3298,362.5555 586.2109,351.7821 775.9733,332.8617" style="fill:none;stroke:rgb(78,154,6);stroke-width:2;stroke-linejoin:bevel;stroke-dasharray:4,1" />
    <ellipse cx="48.551" cy="428.7875" rx="3" ry="3" style="fill:rgb(78,154,6);stroke:none;" shape-rendering="geometricPrecision" />
    <ellipse cx="80.1781" cy="423.442" rx="3" ry="3" style="fill:rgb(78,154,6);stroke:none;" shape-rendering="geometricPrecision" />
    <ellipse cx="111.8051" cy="417.7061" rx="3" ry="3" style="fill:rgb(78,154,6);stroke:none;" shape-rendering="geometricPrecision" />
    <ellipse cx="143.4322" cy="412.3319" rx="3" ry="3" style="fill:rgb(78,154,6);stroke:none;" shape-rendering="geometricPrecision" />
    <ellipse cx="175.0592" cy="407.1255" rx="3" ry="3" style="fill:rgb(78,154,6);stroke:none;" shape-rendering="geometricPrecision" />
    <ellipse cx="206.6863" cy="401.9163" rx="3" ry="3" style="fill:rgb(78,154,6);stroke:none;" shape-rendering="geometricPrecision" />
    <ellipse cx="301.5674" cy="387.4216" rx="3" ry="3" style="fill:rgb(78,154,6);stroke:none;" shape-rendering="geometricPrecision" />
    <ellipse cx="396.4486" cy="374.2616" rx="3" ry="3" style="fill:rgb(78,154,6);stroke:none;" shape-rendering="geometricPrecision" />
    <ellipse cx="491.3298" cy="362.5555" rx="3" ry="3" style="fill:rgb(78,154,6);stroke:none;" shape-rendering="geometricPrecision" />
    <ellipse cx="586.2109" cy="351.7821" rx="3" ry="3" style="fill:rgb(78,154,6);stroke:none;" shape-rendering="geometricPrecision" />
    <ellipse cx="775.9733" cy="332.8617" rx="3" ry="3" style="fill:rgb(78,154,6);stroke:none;" shape-rendering="geometricPrecision" />
    <polyline points="48.551,385.1724 80.1781,382.7948 111.8051,380.1663 143.4322,377.6281 175.0592,375.0971 206.6863,372.4908 301.5674,364.8255 396.4486,357.2912 491.3298,350.0753 586.2109,342.9569 775.9733,329.1742" style="fill:none;stroke:rgb(200,141,0);stroke-width:2;stroke-linejoin:bevel;stroke-dasharray:4,1" />
    <ellipse cx="48.551" cy="385.1724" rx="3" ry="3" style="fill:rgb(200,141,0);stroke:none;" shape-rendering="geometricPrecision" />
    <ellipse cx="80.1781" cy="382.7948" rx="3" ry="3" style="fill:rgb(200,141,0);stroke:none;" shape-rendering="geometricPrecision" />
    <ellipse cx="111.8051" cy="380.1663" rx="3" ry="3" style="fill:rgb(200,141,0);stroke:none;" shape-rendering="geometricPrecision" />
    <ellipse cx="143.4322" cy="377.6281" rx="3" ry="3" style="fill:rgb(200,141,0);stroke:none;" shape-rendering="geometricPrecision" />
    <ellipse cx="175.0592" cy="375.0971" rx="3" ry="3" style="fill:rgb(200,141,0);stroke:none;" shape-rendering="geometricPrecision" />
    <ellipse cx="206.6863" cy="372.4908" rx="3" ry="3" style="fill:rgb(200,141,0);stroke:none;" shape-rendering="geometricPrecision" />
    <ellipse cx="301.5674" cy="364.8255" rx="3" ry="3" style="fill:rgb(200,141,0);stroke:none;" shape-rendering="geometricPrecision" />
    <ellipse cx="396.4486" cy="357.2912" rx="3" ry="3" style="fill:rgb(200,141,0);stroke:none;" shape-rendering="geometricPrecision" />
    <ellipse cx="491.3298" cy="350.0753" rx="3" ry="3" style="fill:rgb(200,141,0);stroke:none;" shape-rendering="geometricPrecision" />
    <ellipse cx="586.2109" cy="342.9569" rx="3" ry="3" style="fill:rgb(200,141,0);stroke:none;" shape-rendering="geometricPrecision" />
    <ellipse cx="775.9733" cy="329.1742" rx="3" ry="3" style="fill:rgb(200,141,0);stroke:none;" shape-rendering="geometricPrecision" />
    <polyline points="48.551,440.633 80.1781,433.8123 111.8051,426.5355 143.4322,419.7581 175.0592,413.231 206.6863,406.7392 301.5674,388.8907 396.4486,372.978 491.3298,359.0778 586.2109,346.5154 775.9733,325.0503" style="fill:none;stroke:rgb(204,0,0);stroke-width:2;stroke-linejoin:bevel;stroke-dasharray:4,1" />
    <ellipse cx="48.551" cy="440.633" rx="3" ry="3" style="fill:rgb(204,0,0);stroke:none;" shape-rendering="geometricPrecision" />
    <ellipse cx="80.1781" cy="433.8123" rx="3" ry="3" style="fill:rgb(204,0,0);stroke:none;" shape-rendering="geometricPrecision" />
    <ellipse cx="111.8051" cy="426.5355" rx="3" ry="3" style="fill:rgb(204,0,0);stroke:none;" shape-rendering="geometricPrecision" />
    <ellipse cx="143.4322" cy="419.7581" rx="3" ry="3" style="fill:rgb(204,0,0);stroke:none;" shape-rendering="geometricPrecision" />
    <ellipse cx="175.0592" cy="413.231" rx="3" ry="3" style="fill:rgb(204,0,0);stroke:none;" shape-rendering="geometricPrecision" />
    <ellipse cx="206.6863" cy="406.7392" rx="3" ry="3" style="fill:rgb(204,0,0);stroke:none;" shape-rendering="geometricPrecision" />
    <ellipse cx="301.5674" cy="388.8907" rx="3" ry="3" style="fill:rgb(204,0,0);stroke:none;" shape-rendering="geometricPrecision" />
    <ellipse cx="396.4486" cy="372.978" rx="3" ry="3" style="fill:rgb(204,0,0);stroke:none;" shape-rendering="geometricPrecision" />
    <ellipse cx="491.3298" cy="359.0778" rx="3" ry="3" style="fill:rgb(204,0,0);stroke:none;" shape-rendering="geometricPrecision" />
    <ellipse cx="586.2109" cy="346.5154" rx="3" ry="3" style="fill:rgb(204,0,0);stroke:none;" shape-rendering="geometricPrecision" />
    <ellipse cx="775.9733" cy="325.0503" rx="3" ry="3" style="fill:rgb(204,0,0);stroke:none;" shape-rendering="geometricPrecision" />
    <polyline points="48.551,284.0285 80.1781,290.1396 111.8051,296.5615 143.4322,302.4489 175.0592,308.0302 206.6863,313.4921 301.5674,328.0233 396.4486,340.3279 491.3298,350.5202 586.2109,359.2372 775.9733,372.8914" style="fill:none;stroke:rgb(32,74,135);stroke-width:2;stroke-linejoin:bevel;stroke-dasharray:4,1" />
    <ellipse cx="48.551" cy="284.0285" rx="3" ry="3" style="fill:rgb(32,74,135);stroke:none;" shape-rendering="geometricPrecision" />
    <ellipse cx="80.1781" cy="290.1396" rx="3" ry="3" style="fill:rgb(32,74,135);stroke:none;" shape-rendering="geometricPrecision" />
    <ellipse cx="111.8051" cy="296.5615" rx="3" ry="3" style="fill:rgb(32,74,135);stroke:none;" shape-rendering="geometricPrecision" />
    <ellipse cx="143.4322" cy="302.4489" rx="3" ry="3" style="fill:rgb(32,74,135);stroke:none;" shape-rendering="geometricPrecision" />
    <ellipse cx="175.0592" cy="308.0302" rx="3" ry="3" style="fill:rgb(32,74,135);stroke:none;" shape-rendering="geometricPrecision" />
    <ellipse cx="206.6863" cy="313.4921" rx="3" ry="3" style="fill:rgb(32,74,135);stroke:none;" shape-rendering="geometricPrecision" />
    <ellipse cx="301.5674" cy="328.0233" rx="3" ry="3" style="fill:rgb(32,74,135);stroke:none;" shape-rendering="geometricPrecision" />
    <ellipse cx="396.4486" cy="340.3279" rx="3" ry="3" style="fill:rgb(32,74,135);stroke:none;" shape-rendering="geometricPrecision" />
    <ellipse cx="491.3298" cy="350.5202" rx="3" ry="3" style="fill:rgb(32,74,135);stroke:none;" shape-rendering="geometricPrecision" />
    <ellipse cx="586.2109" cy="359.2372" rx="3" ry="3" style="fill:rgb(32,74,135);stroke:none;" shape-rendering="geometricPrecision" />
    <ellipse cx="775.9733" cy="372.8914" rx="3" ry="3" style="fill:rgb(32,74,135);stroke:none;" shape-rendering="geometricPrecision" />
  </g>
  <defs>
    <clipPath id="clipPath3">
      <rect x="0" y="0" width="800" height="600" />
    </clipPath>
  </defs>
  <g clip-path="url(#clipPath3)">
    <text dominant-baseline="hanging" text-anchor="middle" transform="translate(415.8993,8)" font-family="Segoe UI" font-size="18" font-weight="700" fill="black">Curva de juros de USDBTC</text>
    <rect x="48.551" y="34.106" width="734.6965" height="522.788" style="fill:none;stroke:black;stroke-width:1" shape-rendering="crispEdges" />
  </g>
</svg>