<?xml version="1.0" encoding="utf-8" standalone="no"?>
<!DOCTYPE svg PUBLIC "-//W3C//DTD SVG 1.1//EN" "http://www.w3.org/Graphics/SVG/1.1/DTD/svg11.dtd">
<svg width="800" height="600" version="1.1" xmlns:xlink="http://www.w3.org/1999/xlink" xmlns="http://www.w3.org/2000/svg">
  <defs>
    <clipPath id="clipPath1">
      <rect x="0" y="0" width="800" height="600" />
    </clipPath>
  </defs>
  <g clip-path="url(#clipPath1)">
    <polyline points="64.3645,556.894 64.3645,560.894" style="fill:none;stroke:black;stroke-width:1" shape-rendering="crispEdges" />
    <polyline points="80.1781,556.894 80.1781,560.894" style="fill:none;stroke:black;stroke-width:1" shape-rendering="crispEdges" />
    <polyline points="95.9916,556.894 95.9916,560.894" style="fill:none;stroke:black;stroke-width:1" shape-rendering="crispEdges" />
    <polyline points="127.6186,556.894 127.6186,560.894" style="fill:none;stroke:black;stroke-width:1" shape-rendering="crispEdges" />
    <polyline points="143.4322,556.894 143.4322,560.894" style="fill:none;stroke:black;stroke-width:1" shape-rendering="crispEdges" />
    <polyline points="159.2457,556.894 159.2457,560.894" style="fill:none;stroke:black;stroke-width:1" shape-rendering="crispEdges" />
    <polyline points="190.8727,556.894 190.8727,560.894" style="fill:none;stroke:black;stroke-width:1" shape-rendering="crispEdges" />
    <polyline points="206.6863,556.894 206.6863,560.894" style="fill:none;stroke:black;stroke-width:1" shape-rendering="crispEdges" />
    <polyline points="222.4998,556.894 222.4998,560.894" style="fill:none;stroke:black;stroke-width:1" shape-rendering="crispEdges" />
    <polyline points="254.1269,556.894 254.1269,560.894" style="fill:none;stroke:black;stroke-width:1" shape-rendering="crispEdges" />
    <polyline points="269.9404,556.894 269.9404,560.894" style="fill:none;stroke:black;stroke-width:1" shape-rendering="crispEdges" />
    <polyline points="285.7539,556.894 285.7539,560.894" style="fill:none;stroke:black;stroke-width:1" shape-rendering="crispEdges" />
    <polyline points="317.381,556.894 317.381,560.894" style="fill:none;stroke:black;stroke-width:1" shape-rendering="crispEdges" />
    <polyline points="333.1945,556.894 333.1945,560.894" style="fill:none;stroke:black;stroke-width:1" shape-rendering="crispEdges" />
    <polyline points="349.008,556.894 349.008,560.894" style="fill:none;stroke:black;stroke-width:1" shape-rendering="crispEdges" />
    <polyline points="380.6351,556.894 380.6351,560.894" style="fill:none;stroke:black;stroke-width:1" shape-rendering="crispEdges" />
    <polyline points="396.4486,556.894 396.4486,560.894" style="fill:none;stroke:black;stroke-width:1" shape-rendering="crispEdges" />
    <polyline points="412.2621,556.894 412.2621,560.894" style="fill:none;stroke:black;stroke-width:1" shape-rendering="crispEdges" />
    <polyline points="443.8892,556.894 443.8892,560.894" style="fill:none;stroke:black;stroke-width:1" shape-rendering="crispEdges" />
    <polyline points="459.7027,556.894 459.7027,560.894" style="fill:none;stroke:black;stroke-width:1" shape-rendering="crispEdges" />
    <polyline points="475.5162,556.894 475.5162,560.894" style="fill:none;stroke:black;stroke-width:1" shape-rendering="crispEdges" />
    <polyline points="507.1433,556.894 507.1433,560.894" style="fill:none;stroke:black;stroke-width:1" shape-rendering="crispEdges" />
    <polyline points="522.9568,556.894 522.9568,560.894" style="fill:none;stroke:black;stroke-width:1" shape-rendering="crispEdges" />
    <polyline points="538.7704,556.894 538.7704,560.894" style="fill:none;stroke:black;stroke-width:1" shape-rendering="crispEdges" />
    <polyline points="570.3974,556.894 570.3974,560.894" style="fill:none;stroke:black;stroke-width:1" shape-rendering="crispEdges" />
    <polyline points="586.2109,556.894 586.2109,560.894" style="fill:none;stroke:black;stroke-width:1" shape-rendering="crispEdges" />
    <polyline points="602.0245,556.894 602.0245,560.894" style="fill:none;stroke:black;stroke-width:1" shape-rendering="crispEdges" />
    <polyline points="633.6515,556.894 633.6515,560.894" style="fill:none;stroke:black;stroke-width:1" shape-rendering="crispEdges" />
    <polyline points="649.4651,556.894 649.4651,560.894" style="fill:none;stroke:black;stroke-width:1" shape-rendering="crispEdges" />
    <polyline points="665.2786,556.894 665.2786,560.894" style="fill:none;stroke:black;stroke-width:1" shape-rendering="crispEdges" />
    <polyline points="696.9056,556.894 696.9056,560.894" style="fill:none;stroke:black;stroke-width:1" shape-rendering="crispEdges" />
    <polyline points="712.7192,556.894 712.7192,560.894" style="fill:none;stroke:black;stroke-width:1" shape-rendering="crispEdges" />
    <polyline points="728.5327,556.894 728.5327,560.894" style="fill:none;stroke:black;stroke-width:1" shape-rendering="crispEdges" />
    <polyline points="760.1597,556.894 760.1597,560.894" style="fill:none;stroke:black;stroke-width:1" shape-rendering="crispEdges" />
    <polyline points="775.9733,556.894 775.9733,560.894" style="fill:none;stroke:black;stroke-width:1" shape-rendering="crispEdges" />
    <polyline points="48.551,543.8243 44.551,543.8243" style="fill:none;stroke:black;stroke-width:1" shape-rendering="crispEdges" />
    <polyline points="48.551,530.7546 44.551,530.7546" style="fill:none;stroke:black;stroke-width:1" shape-rendering="crispEdges" />
    <polyline points="48.551,517.6849 44.551,517.6849" style="fill:none;stroke:black;stroke-width:1" shape-rendering="crispEdges" />
    <polyline points="48.551,504.6152 44.551,504.6152" style="fill:none;stroke:black;stroke-width:1" shape-rendering="crispEdges" />
    <polyline points="48.551,478.4758 44.551,478.4758" style="fill:none;stroke:black;stroke-width:1" shape-rendering="crispEdges" />
    <polyline points="48.551,465.4061 44.551,465.4061" style="fill:none;stroke:black;stroke-width:1" shape-rendering="crispEdges" />
    <polyline points="48.551,452.3364 44.551,452.3364" style="fill:none;stroke:black;stroke-width:1" shape-rendering="crispEdges" />
    <polyline points="48.551,439.2667 44.551,439.2667" style="fill:none;stroke:black;stroke-width:1" shape-rendering="crispEdges" />
    <polyline points="48.551,413.1273 44.551,413.1273" style="fill:none;stroke:black;stroke-width:1" shape-rendering="crispEdges" />
    <polyline points="48.551,400.0576 44.551,400.0576" style="fill:none;stroke:black;stroke-width:1" shape-rendering="crispEdges" />
    <polyline points="48.551,386.9879 44.551,386.9879" style="fill:none;stroke:black;stroke-width:1" shape-rendering="crispEdges" />
    <polyline points="48.551,373.9182 44.551,373.9182" style="fill:none;stroke:black;stroke-width:1" shape-rendering="crispEdges" />
    <polyline points="48.551,347.7788 44.551,347.7788" style="fill:none;stroke:black;stroke-width:1" shape-rendering="crispEdges" />
    <polyline points="48.551,334.7091 44.551,334.7091" style="fill:none;stroke:black;stroke-width:1" shape-rendering="crispEdges" />
    <polyline points="48.551,321.6394 44.551,321.6394" style="fill:none;stroke:black;stroke-width:1" shape-rendering="crispEdges" />
    <polyline points="48.551,308.5697 44.551,308.5697" style="fill:none;stroke:black;stroke-width:1" shape-rendering="crispEdges" />
    <polyline points="48.551,282.4303 44.551,282.4303" style="fill:none;stroke:black;stroke-width:1" shape-rendering="crispEdges" />
    <polyline points="48.551,269.3606 44.551,269.3606" style="fill:none;stroke:black;stroke-width:1" shape-rendering="crispEdges" />
    <polyline points="48.551,256.2909 44.551,256.2909" style="fill:none;stroke:black;stroke-width:1" shape-rendering="crispEdges" />
    <polyline points="48.551,243.2212 44.551,243.2212" style="fill:none;stroke:black;stroke-width:1" shape-rendering="crispEdges" />
    <polyline points="48.551,217.0818 44.551,217.0818" style="fill:none;stroke:black;stroke-width:1" shape-rendering="crispEdges" />
    <polyline points="48.551,204.0121 44.551,204.0121" style="fill:none;stroke:black;stroke-width:1" shape-rendering="crispEdges" />
    <polyline points="48.551,190.9424 44.551,190.9424" style="fill:none;stroke:black;stroke-width:1" shape-rendering="crispEdges" />
    <polyline points="48.551,177.8727 44.551,177.8727" style="fill:none;stroke:black;stroke-width:1" shape-rendering="crispEdges" />
    <polyline points="48.551,151.7333 44.551,151.7333" style="fill:none;stroke:black;stroke-width:1" shape-rendering="crispEdges" />
    <polyline points="48.551,138.6636 44.551,138.6636" style="fill:none;stroke:black;stroke-width:1" shape-rendering="crispEdges" />
    <polyline points="48.551,125.5939 44.551,125.5939" style="fill:none;stroke:black;stroke-width:1" shape-rendering="crispEdges" />
    <polyline points="48.551,112.5242 44.551,112.5242" style="fill:none;stroke:black;stroke-width:1" shape-rendering="crispEdges" />
    <polyline points="48.551,86.3848 44.551,86.3848" style="fill:none;stroke:black;stroke-width:1" shape-rendering="crispEdges" />
    <polyline points="48.551,73.3151 44.551,73.3151" style="fill:none;stroke:black;stroke-width:1" shape-rendering="crispEdges" />
    <polyline points="48.551,60.2454 44.551,60.2454" style="fill:none;stroke:black;stroke-width:1" shape-rendering="crispEdges" />
    <polyline points="48.551,47.1757 44.551,47.1757" style="fill:none;stroke:black;stroke-width:1" shape-rendering="crispEdges" />
    <text dominant-baseline="hanging" text-anchor="middle" transform="translate(48.551,567.894)" font-family="Segoe UI" font-size="12" font-weight="400" fill="black">0M</text>
    <text dominant-baseline="hanging" text-anchor="middle" transform="translate(111.8051,567.894)" font-family="Segoe UI" font-size="12" font-weight="400" fill="black">2M</text>
    <text dominant-baseline="hanging" text-anchor="middle" transform="translate(175.0592,567.894)" font-family="Segoe UI" font-size="12" font-weight="400" fill="black">4M</text>
    <text dominant-baseline="hanging" text-anchor="middle" transform="translate(238.3133,567.894)" font-family="Segoe UI" font-size="12" font-weight="400" fill="black">6M</text>
    <text dominant-baseline="hanging" text-anchor="middle" transform="translate(301.5674,567.894)" font-family="Segoe UI" font-size="12" font-weight="400" fill="black">8M</text>
    <text dominant-baseline="hanging" text-anchor="middle" transform="translate(364.8216,567.894)" font-family="Segoe UI" font-size="12" font-weight="400" fill="black">10M</text>
    <text dominant-baseline="hanging" text-anchor="middle" transform="translate(428.0757,567.894)" font-family="Segoe UI" font-size="12" font-weight="400" fill="black">12M</text>
    <text dominant-baseline="hanging" text-anchor="middle" transform="translate(491.3298,567.894)" font-family="Segoe UI" font-size="12" font-weight="400" fill="black">14M</text>
    <text dominant-baseline="hanging" text-anchor="middle" transform="translate(554.5839,567.894)" font-family="Segoe UI" font-size="12" font-weight="400" fill="black">16M</text>
    <text dominant-baseline="hanging" text-anchor="middle" transform="translate(617.838,567.894)" font-family="Segoe UI" font-size="12" font-weight="400" fill="black">18M</text>
    <text dominant-baseline="hanging" text-anchor="middle" transform="translate(681.0921,567.894)" font-family="Segoe UI" font-size="12" font-weight="400" fill="black">20M</text>
    <text dominant-baseline="hanging" text-anchor="middle" transform="translate(744.3462,567.894)" font-family="Segoe UI" font-size="12" font-weight="400" fill="black">22M</text>
    <polyline points="48.551,34.106 48.551,556.894" style="fill:none;stroke:rgb(0,0,0);stroke-width:1;stroke-opacity:0.25098039215686274" shape-rendering="crispEdges" />
    <polyline points="111.8051,34.106 111.8051,556.894" style="fill:none;stroke:rgb(0,0,0);stroke-width:1;stroke-opacity:0.25098039215686274" shape-rendering="crispEdges" />
    <polyline points="175.0592,34.106 175.0592,556.894" style="fill:none;stroke:rgb(0,0,0);stroke-width:1;stroke-opacity:0.25098039215686274" shape-rendering="crispEdges" />
    <polyline points="238.3133,34.106 238.3133,556.894" style="fill:none;stroke:rgb(0,0,0);stroke-width:1;stroke-opacity:0.25098039215686274" shape-rendering="crispEdges" />
    <polyline points="301.5674,34.106 301.5674,556.894" style="fill:none;stroke:rgb(0,0,0);stroke-width:1;stroke-opacity:0.25098039215686274" shape-rendering="crispEdges" />
    <polyline points="364.8216,34.106 364.8216,556.894" style="fill:none;stroke:rgb(0,0,0);stroke-width:1;stroke-opacity:0.25098039215686274" shape-rendering="crispEdges" />
    <polyline points="428.0757,34.106 428.0757,556.894" style="fill:none;stroke:rgb(0,0,0);stroke-width:1;stroke-opacity:0.25098039215686274" shape-rendering="crispEdges" />
    <polyline points="491.3298,34.106 491.3298,556.894" style="fill:none;stroke:rgb(0,0,0);stroke-width:1;stroke-opacity:0.25098039215686274" shape-rendering="crispEdges" />
    <polyline points="554.5839,34.106 554.5839,556.894" style="fill:none;stroke:rgb(0,0,0);stroke-width:1;stroke-opacity:0.25098039215686274" shape-rendering="crispEdges" />
    <polyline points="617.838,34.106 617.838,556.894" style="fill:none;stroke:rgb(0,0,0);stroke-width:1;stroke-opacity:0.25098039215686274" shape-rendering="crispEdges" />
    <polyline points="681.0921,34.106 681.0921,556.894" style="fill:none;stroke:rgb(0,0,0);stroke-width:1;stroke-opacity:0.25098039215686274" shape-rendering="crispEdges" />
    <polyline points="744.3462,34.106 744.3462,556.894" style="fill:none;stroke:rgb(0,0,0);stroke-width:1;stroke-opacity:0.25098039215686274" shape-rendering="crispEdges" />
    <polyline points="48.551,556.894 48.551,563.894" style="fill:none;stroke:black;stroke-width:1" shape-rendering="crispEdges" />
    <polyline points="111.8051,556.894 111.8051,563.894" style="fill:none;stroke:black;stroke-width:1" shape-rendering="crispEdges" />
    <polyline points="175.0592,556.894 175.0592,563.894" style="fill:none;stroke:black;stroke-width:1" shape-rendering="crispEdges" />
    <polyline points="238.3133,556.894 238.3133,563.894" style="fill:none;stroke:black;stroke-width:1" shape-rendering="crispEdges" />
    <polyline points="301.5674,556.894 301.5674,563.894" style="fill:none;stroke:black;stroke-width:1" shape-rendering="crispEdges" />
    <polyline points="364.8216,556.894 364.8216,563.894" style="fill:none;stroke:black;stroke-width:1" shape-rendering="crispEdges" />
    <polyline points="428.0757,556.894 428.0757,563.894" style="fill:none;stroke:black;stroke-width:1" shape-rendering="crispEdges" />
    <polyline points="491.3298,556.894 491.3298,563.894" style="fill:none;stroke:black;stroke-width:1" shape-rendering="crispEdges" />
    <polyline points="554.5839,556.894 554.5839,563.894" style="fill:none;stroke:black;stroke-width:1" shape-rendering="crispEdges" />
    <polyline points="617.838,556.894 617.838,563.894" style="fill:none;stroke:black;stroke-width:1" shape-rendering="crispEdges" />
    <polyline points="681.0921,556.894 681.0921,563.894" style="fill:none;stroke:black;stroke-width:1" shape-rendering="crispEdges" />
    <polyline points="744.3462,556.894 744.3462,563.894" style="fill:none;stroke:black;stroke-width:1" shape-rendering="crispEdges" />
    <text dominant-baseline="baseline" text-anchor="middle" transform="translate(415.8993,588)" font-family="Segoe UI" font-size="12" font-weight="400" fill="black">Meses</text>
    <text dominant-baseline="middle" text-anchor="end" transform="translate(37.551,556.894)" font-family="Segoe UI" font-size="12" font-weight="400" fill="black">-0.4</text>
    <text dominant-baseline="middle" text-anchor="end" transform="translate(37.551,491.5455)" font-family="Segoe UI" font-size="12" font-weight="400" fill="black">-0.3</text>
    <text dominant-baseline="middle" text-anchor="end" transform="translate(37.551,426.197)" font-family="Segoe UI" font-size="12" font-weight="400" fill="black">-0.2</text>
    <text dominant-baseline="middle" text-anchor="end" transform="translate(37.551,360.8485)" font-family="Segoe UI" font-size="12" font-weight="400" fill="black">-0.1</text>
    <text dominant-baseline="middle" text-anchor="end" transform="translate(37.551,295.5)" font-family="Segoe UI" font-size="12" font-weight="400" fill="black">0</text>
    <text dominant-baseline="middle" text-anchor="end" transform="translate(37.551,230.1515)" font-family="Segoe UI" font-size="12" font-weight="400" fill="black">0.1</text>
    <text dominant-baseline="middle" text-anchor="end" transform="translate(37.551,164.803)" font-family="Segoe UI" font-size="12" font-weight="400" fill="black">0.2</text>
    <text dominant-baseline="middle" text-anchor="end" transform="translate(37.551,99.4545)" font-family="Segoe UI" font-size="12" font-weight="400" fill="black">0.3</text>
    <text dominant-baseline="middle" text-anchor="end" transform="translate(37.551,34.106)" font-family="Segoe UI" font-size="12" font-weight="400" fill="black">0.4</text>
    <polyline points="48.551,556.894 783.2475,556.894" style="fill:none;stroke:rgb(0,0,0);stroke-width:1;stroke-opacity:0.25098039215686274" shape-rendering="crispEdges" />
    <polyline points="48.551,491.5455 783.2475,491.5455" style="fill:none;stroke:rgb(0,0,0);stroke-width:1;stroke-opacity:0.25098039215686274" shape-rendering="crispEdges" />
    <polyline points="48.551,426.197 783.2475,426.197" style="fill:none;stroke:rgb(0,0,0);stroke-width:1;stroke-opacity:0.25098039215686274" shape-rendering="crispEdges" />
    <polyline points="48.551,360.8485 783.2475,360.8485" style="fill:none;stroke:rgb(0,0,0);stroke-width:1;stroke-opacity:0.25098039215686274" shape-rendering="crispEdges" />
    <polyline points="48.551,295.5 783.2475,295.5" style="fill:none;stroke:rgb(0,0,0);stroke-width:1;stroke-opacity:0.25098039215686274" shape-rendering="crispEdges" />
    <polyline points="48.551,230.1515 783.2475,230.1515" style="fill:none;stroke:rgb(0,0,0);stroke-width:1;stroke-opacity:0.25098039215686274" shape-rendering="crispEdges" />
    <polyline points="48.551,164.803 783.2475,164.803" style="fill:none;stroke:rgb(0,0,0);stroke-width:1;stroke-opacity:0.25098039215686274" shape-rendering="crispEdges" />
    <polyline points="48.551,99.4545 783.2475,99.4545" style="fill:none;stroke:rgb(0,0,0);stroke-width:1;stroke-opacity:0.25098039215686274" shape-rendering="crispEdges" />
    <polyline points="48.551,34.106 783.2475,34.106" style="fill:none;stroke:rgb(0,0,0);stroke-width:1;stroke-opacity:0.25098039215686274" shape-rendering="crispEdges" />
    <polyline points="48.551,556.894 41.551,556.894" style="fill:none;stroke:black;stroke-width:1" shape-rendering="crispEdges" />
    <polyline points="48.551,491.5455 41.551,491.5455" style="fill:none;stroke:black;stroke-width:1" shape-rendering="crispEdges" />
    <polyline points="48.551,426.197 41.551,426.197" style="fill:none;stroke:black;stroke-width:1" shape-rendering="crispEdges" />
    <polyline points="48.551,360.8485 41.551,360.8485" style="fill:none;stroke:black;stroke-width:1" shape-rendering="crispEdges" />
    <polyline points="48.551,295.5 41.551,295.5" style="fill:none;stroke:black;stroke-width:1" shape-rendering="crispEdges" />
    <polyline points="48.551,230.1515 41.551,230.1515" style="fill:none;stroke:black;stroke-width:1" shape-rendering="crispEdges" />
    <polyline points="48.551,164.803 41.551,164.803" style="fill:none;stroke:black;stroke-width:1" shape-rendering="crispEdges" />
    <polyline points="48.551,99.4545 41.551,99.4545" style="fill:none;stroke:black;stroke-width:1" shape-rendering="crispEdges" />
    <polyline points="48.551,34.106 41.551,34.106" style="fill:none;stroke:black;stroke-width:1" shape-rendering="crispEdges" />
    <text dominant-baseline="hanging" text-anchor="middle" transform="translate(12,295.5) rotate(-90)" font-family="Segoe UI" font-size="12" font-weight="400" fill="black">Taxa</text>
  </g>
  <defs>
    <clipPath id="clipPath2">
      <rect x="48.551" y="34.106" width="734.6965" height="522.788" />
    </clipPath>
  </defs>
  <g clip-path="url(#clipPath2)">
    <polyline points="48.551,488.7481 80.1781,452.9967 111.8051,425.1808 143.4322,406.143 175.0592,392.3082 206.6863,381.7407 301.5674,363.0099 396.4486,353.4308 491.3298,347.8574 586.2109,344.1353 775.9733,339.505" style="fill:none;stroke:rgb(78,154,6);stroke-width:2;stroke-linejoin:bevel" />
    <ellipse cx="48.551" cy="488.7481" rx="3" ry="3" style="fill:rgb(78,154,6);stroke:none;" shape-rendering="geometricPrecision" />
    <ellipse cx="80.1781" cy="452.9967" rx="3" ry="3" style="fill:rgb(78,154,6);stroke:none;" shape-rendering="geometricPrecision" />
    <ellipse cx="111.8051" cy="425.1808" rx="3" ry="3" style="fill:rgb(78,154,6);stroke:none;" shape-rendering="geometricPrecision" />
    <ellipse cx="143.4322" cy="406.143" rx="3" ry="3" style="fill:rgb(78,154,6);stroke:none;" shape-rendering="geometricPrecision" />
    <ellipse cx="175.0592" cy="392.3082" rx="3" ry="3" style="fill:rgb(78,154,6);stroke:none;" shape-rendering="geometricPrecision" />
    <ellipse cx="206.6863" cy="381.7407" rx="3" ry="3" style="fill:rgb(78,154,6);stroke:none;" shape-rendering="geometricPrecision" />
    <ellipse cx="301.5674" cy="363.0099" rx="3" ry="3" style="fill:rgb(78,154,6);stroke:none;" shape-rendering="geometricPrecision" />
    <ellipse cx="396.4486" cy="353.4308" rx="3" ry="3" style="fill:rgb(78,154,6);stroke:none;" shape-rendering="geometricPrecision" />
    <ellipse cx="491.3298" cy="347.8574" rx="3" ry="3" style="fill:rgb(78,154,6);stroke:none;" shape-rendering="geometricPrecision" />
    <ellipse cx="586.2109" cy="344.1353" rx="3" ry="3" style="fill:rgb(78,154,6);stroke:none;" shape-rendering="geometricPrecision" />
    <ellipse cx="775.9733" cy="339.505" rx="3" ry="3" style="fill:rgb(78,154,6);stroke:none;" shape-rendering="geometricPrecision" />
  </g>
  <defs>
    <clipPath id="clipPath3">
      <rect x="0" y="0" width="800" height="600" />
    </clipPath>
  </defs>
  <g clip-path="url(#clipPath3)">
    <text dominant-baseline="hanging" text-anchor="middle" transform="translate(415.8993,8)" font-family="Segoe UI" font-size="18" font-weight="700" fill="black">Curva de juros de USDBTC - 16-01-2025</text>
    <rect x="48.551" y="34.106" width="734.6965" height="522.788" style="fill:none;stroke:black;stroke-width:1" shape-rendering="crispEdges" />
  </g>
</svg>