<?xml version="1.0" encoding="utf-8" standalone="no"?>
<!DOCTYPE svg PUBLIC "-//W3C//DTD SVG 1.1//EN" "http://www.w3.org/Graphics/SVG/1.1/DTD/svg11.dtd">
<svg width="800" height="600" version="1.1" xmlns:xlink="http://www.w3.org/1999/xlink" xmlns="http://www.w3.org/2000/svg">
  <defs>
    <clipPath id="clipPath1">
      <rect x="0" y="0" width="800" height="600" />
    </clipPath>
  </defs>
  <g clip-path="url(#clipPath1)">
    <polyline points="64.3645,556.894 64.3645,560.894" style="fill:none;stroke:black;stroke-width:1" shape-rendering="crispEdges" />
    <polyline points="80.1781,556.894 80.1781,560.894" style="fill:none;stroke:black;stroke-width:1" shape-rendering="crispEdges" />
    <polyline points="95.9916,556.894 95.9916,560.894" style="fill:none;stroke:black;stroke-width:1" shape-rendering="crispEdges" />
    <polyline points="127.6186,556.894 127.6186,560.894" style="fill:none;stroke:black;stroke-width:1" shape-rendering="crispEdges" />
    <polyline points="143.4322,556.894 143.4322,560.894" style="fill:none;stroke:black;stroke-width:1" shape-rendering="crispEdges" />
    <polyline points="159.2457,556.894 159.2457,560.894" style="fill:none;stroke:black;stroke-width:1" shape-rendering="crispEdges" />
    <polyline points="190.8727,556.894 190.8727,560.894" style="fill:none;stroke:black;stroke-width:1" shape-rendering="crispEdges" />
    <polyline points="206.6863,556.894 206.6863,560.894" style="fill:none;stroke:black;stroke-width:1" shape-rendering="crispEdges" />
    <polyline points="222.4998,556.894 222.4998,560.894" style="fill:none;stroke:black;stroke-width:1" shape-rendering="crispEdges" />
    <polyline points="254.1269,556.894 254.1269,560.894" style="fill:none;stroke:black;stroke-width:1" shape-rendering="crispEdges" />
    <polyline points="269.9404,556.894 269.9404,560.894" style="fill:none;stroke:black;stroke-width:1" shape-rendering="crispEdges" />
    <polyline points="285.7539,556.894 285.7539,560.894" style="fill:none;stroke:black;stroke-width:1" shape-rendering="crispEdges" />
    <polyline points="317.381,556.894 317.381,560.894" style="fill:none;stroke:black;stroke-width:1" shape-rendering="crispEdges" />
    <polyline points="333.1945,556.894 333.1945,560.894" style="fill:none;stroke:black;stroke-width:1" shape-rendering="crispEdges" />
    <polyline points="349.008,556.894 349.008,560.894" style="fill:none;stroke:black;stroke-width:1" shape-rendering="crispEdges" />
    <polyline points="380.6351,556.894 380.6351,560.894" style="fill:none;stroke:black;stroke-width:1" shape-rendering="crispEdges" />
    <polyline points="396.4486,556.894 396.4486,560.894" style="fill:none;stroke:black;stroke-width:1" shape-rendering="crispEdges" />
    <polyline points="412.2621,556.894 412.2621,560.894" style="fill:none;stroke:black;stroke-width:1" shape-rendering="crispEdges" />
    <polyline points="443.8892,556.894 443.8892,560.894" style="fill:none;stroke:black;stroke-width:1" shape-rendering="crispEdges" />
    <polyline points="459.7027,556.894 459.7027,560.894" style="fill:none;stroke:black;stroke-width:1" shape-rendering="crispEdges" />
    <polyline points="475.5162,556.894 475.5162,560.894" style="fill:none;stroke:black;stroke-width:1" shape-rendering="crispEdges" />
    <polyline points="507.1433,556.894 507.1433,560.894" style="fill:none;stroke:black;stroke-width:1" shape-rendering="crispEdges" />
    <polyline points="522.9568,556.894 522.9568,560.894" style="fill:none;stroke:black;stroke-width:1" shape-rendering="crispEdges" />
    <polyline points="538.7704,556.894 538.7704,560.894" style="fill:none;stroke:black;stroke-width:1" shape-rendering="crispEdges" />
    <polyline points="570.3974,556.894 570.3974,560.894" style="fill:none;stroke:black;stroke-width:1" shape-rendering="crispEdges" />
    <polyline points="586.2109,556.894 586.2109,560.894" style="fill:none;stroke:black;stroke-width:1" shape-rendering="crispEdges" />
    <polyline points="602.0245,556.894 602.0245,560.894" style="fill:none;stroke:black;stroke-width:1" shape-rendering="crispEdges" />
    <polyline points="633.6515,556.894 633.6515,560.894" style="fill:none;stroke:black;stroke-width:1" shape-rendering="crispEdges" />
    <polyline points="649.4651,556.894 649.4651,560.894" style="fill:none;stroke:black;stroke-width:1" shape-rendering="crispEdges" />
    <polyline points="665.2786,556.894 665.2786,560.894" style="fill:none;stroke:black;stroke-width:1" shape-rendering="crispEdges" />
    <polyline points="696.9056,556.894 696.9056,560.894" style="fill:none;stroke:black;stroke-width:1" shape-rendering="crispEdges" />
    <polyline points="712.7192,556.894 712.7192,560.894" style="fill:none;stroke:black;stroke-width:1" shape-rendering="crispEdges" />
    <polyline points="728.5327,556.894 728.5327,560.894" style="fill:none;stroke:black;stroke-width:1" shape-rendering="crispEdges" />
    <polyline points="760.1597,556.894 760.1597,560.894" style="fill:none;stroke:black;stroke-width:1" shape-rendering="crispEdges" />
    <polyline points="775.9733,556.894 775.9733,560.894" style="fill:none;stroke:black;stroke-width:1" shape-rendering="crispEdges" />
    <polyline points="48.551,543.8243 44.551,543.8243" style="fill:none;stroke:black;stroke-width:1" shape-rendering="crispEdges" />
    <polyline points="48.551,530.7546 44.551,530.7546" style="fill:none;stroke:black;stroke-width:1" shape-rendering="crispEdges" />
    <polyline points="48.551,517.6849 44.551,517.6849" style="fill:none;stroke:black;stroke-width:1" shape-rendering="crispEdges" />
    <polyline points="48.551,504.6152 44.551,504.6152" style="fill:none;stroke:black;stroke-width:1" shape-rendering="crispEdges" />
    <polyline points="48.551,478.4758 44.551,478.4758" style="fill:none;stroke:black;stroke-width:1" shape-rendering="crispEdges" />
    <polyline points="48.551,465.4061 44.551,465.4061" style="fill:none;stroke:black;stroke-width:1" shape-rendering="crispEdges" />
    <polyline points="48.551,452.3364 44.551,452.3364" style="fill:none;stroke:black;stroke-width:1" shape-rendering="crispEdges" />
    <polyline points="48.551,439.2667 44.551,439.2667" style="fill:none;stroke:black;stroke-width:1" shape-rendering="crispEdges" />
    <polyline points="48.551,413.1273 44.551,413.1273" style="fill:none;stroke:black;stroke-width:1" shape-rendering="crispEdges" />
    <polyline points="48.551,400.0576 44.551,400.0576" style="fill:none;stroke:black;stroke-width:1" shape-rendering="crispEdges" />
    <polyline points="48.551,386.9879 44.551,386.9879" style="fill:none;stroke:black;stroke-width:1" shape-rendering="crispEdges" />
    <polyline points="48.551,373.9182 44.551,373.9182" style="fill:none;stroke:black;stroke-width:1" shape-rendering="crispEdges" />
    <polyline points="48.551,347.7788 44.551,347.7788" style="fill:none;stroke:black;stroke-width:1" shape-rendering="crispEdges" />
    <polyline points="48.551,334.7091 44.551,334.7091" style="fill:none;stroke:black;stroke-width:1" shape-rendering="crispEdges" />
    <polyline points="48.551,321.6394 44.551,321.6394" style="fill:none;stroke:black;stroke-width:1" shape-rendering="crispEdges" />
    <polyline points="48.551,308.5697 44.551,308.5697" style="fill:none;stroke:black;stroke-width:1" shape-rendering="crispEdges" />
    <polyline points="48.551,282.4303 44.551,282.4303" style="fill:none;stroke:black;stroke-width:1" shape-rendering="crispEdges" />
    <polyline points="48.551,269.3606 44.551,269.3606" style="fill:none;stroke:black;stroke-width:1" shape-rendering="crispEdges" />
    <polyline points="48.551,256.2909 44.551,256.2909" style="fill:none;stroke:black;stroke-width:1" shape-rendering="crispEdges" />
    <polyline points="48.551,243.2212 44.551,243.2212" style="fill:none;stroke:black;stroke-width:1" shape-rendering="crispEdges" />
    <polyline points="48.551,217.0818 44.551,217.0818" style="fill:none;stroke:black;stroke-width:1" shape-rendering="crispEdges" />
    <polyline points="48.551,204.0121 44.551,204.0121" style="fill:none;stroke:black;stroke-width:1" shape-rendering="crispEdges" />
    <polyline points="48.551,190.9424 44.551,190.9424" style="fill:none;stroke:black;stroke-width:1" shape-rendering="crispEdges" />
    <polyline points="48.551,177.8727 44.551,177.8727" style="fill:none;stroke:black;stroke-width:1" shape-rendering="crispEdges" />
    <polyline points="48.551,151.7333 44.551,151.7333" style="fill:none;stroke:black;stroke-width:1" shape-rendering="crispEdges" />
    <polyline points="48.551,138.6636 44.551,138.6636" style="fill:none;stroke:black;stroke-width:1" shape-rendering="crispEdges" />
    <polyline points="48.551,125.5939 44.551,125.5939" style="fill:none;stroke:black;stroke-width:1" shape-rendering="crispEdges" />
    <polyline points="48.551,112.5242 44.551,112.5242" style="fill:none;stroke:black;stroke-width:1" shape-rendering="crispEdges" />
    <polyline points="48.551,86.3848 44.551,86.3848" style="fill:none;stroke:black;stroke-width:1" shape-rendering="crispEdges" />
    <polyline points="48.551,73.3151 44.551,73.3151" style="fill:none;stroke:black;stroke-width:1" shape-rendering="crispEdges" />
    <polyline points="48.551,60.2454 44.551,60.2454" style="fill:none;stroke:black;stroke-width:1" shape-rendering="crispEdges" />
    <polyline points="48.551,47.1757 44.551,47.1757" style="fill:none;stroke:black;stroke-width:1" shape-rendering="crispEdges" />
    <text dominant-baseline="hanging" text-anchor="middle" transform="translate(48.551,567.894)" font-family="Segoe UI" font-size="12" font-weight="400" fill="black">0M</text>
    <text dominant-baseline="hanging" text-anchor="middle" transform="translate(111.8051,567.894)" font-family="Segoe UI" font-size="12" font-weight="400" fill="black">2M</text>
    <text dominant-baseline="hanging" text-anchor="middle" transform="translate(175.0592,567.894)" font-family="Segoe UI" font-size="12" font-weight="400" fill="black">4M</text>
    <text dominant-baseline="hanging" text-anchor="middle" transform="translate(238.3133,567.894)" font-family="Segoe UI" font-size="12" font-weight="400" fill="black">6M</text>
    <text dominant-baseline="hanging" text-anchor="middle" transform="translate(301.5674,567.894)" font-family="Segoe UI" font-size="12" font-weight="400" fill="black">8M</text>
    <text dominant-baseline="hanging" text-anchor="middle" transform="translate(364.8216,567.894)" font-family="Segoe UI" font-size="12" font-weight="400" fill="black">10M</text>
    <text dominant-baseline="hanging" text-anchor="middle" transform="translate(428.0757,567.894)" font-family="Segoe UI" font-size="12" font-weight="400" fill="black">12M</text>
    <text dominant-baseline="hanging" text-anchor="middle" transform="translate(491.3298,567.894)" font-family="Segoe UI" font-size="12" font-weight="400" fill="black">14M</text>
    <text dominant-baseline="hanging" text-anchor="middle" transform="translate(554.5839,567.894)" font-family="Segoe UI" font-size="12" font-weight="400" fill="black">16M</text>
    <text dominant-baseline="hanging" text-anchor="middle" transform="translate(617.838,567.894)" font-family="Segoe UI" font-size="12" font-weight="400" fill="black">18M</text>
    <text dominant-baseline="hanging" text-anchor="middle" transform="translate(681.0921,567.894)" font-family="Segoe UI" font-size="12" font-weight="400" fill="black">20M</text>
    <text dominant-baseline="hanging" text-anchor="middle" transform="translate(744.3462,567.894)" font-family="Segoe UI" font-size="12" font-weight="400" fill="black">22M</text>
    <polyline points="48.551,34.106 48.551,556.894" style="fill:none;stroke:rgb(0,0,0);stroke-width:1;stroke-opacity:0.25098039215686274" shape-rendering="crispEdges" />
    <polyline points="111.8051,34.106 111.8051,556.894" style="fill:none;stroke:rgb(0,0,0);stroke-width:1;stroke-opacity:0.25098039215686274" shape-rendering="crispEdges" />
    <polyline points="175.0592,34.106 175.0592,556.894" style="fill:none;stroke:rgb(0,0,0);stroke-width:1;stroke-opacity:0.25098039215686274" shape-rendering="crispEdges" />
    <polyline points="238.3133,34.106 238.3133,556.894" style="fill:none;stroke:rgb(0,0,0);stroke-width:1;stroke-opacity:0.25098039215686274" shape-rendering="crispEdges" />
    <polyline points="301.5674,34.106 301.5674,556.894" style="fill:none;stroke:rgb(0,0,0);stroke-width:1;stroke-opacity:0.25098039215686274" shape-rendering="crispEdges" />
    <polyline points="364.8216,34.106 364.8216,556.894" style="fill:none;stroke:rgb(0,0,0);stroke-width:1;stroke-opacity:0.25098039215686274" shape-rendering="crispEdges" />
    <polyline points="428.0757,34.106 428.0757,556.894" style="fill:none;stroke:rgb(0,0,0);stroke-width:1;stroke-opacity:0.25098039215686274" shape-rendering="crispEdges" />
    <polyline points="491.3298,34.106 491.3298,556.894" style="fill:none;stroke:rgb(0,0,0);stroke-width:1;stroke-opacity:0.25098039215686274" shape-rendering="crispEdges" />
    <polyline points="554.5839,34.106 554.5839,556.894" style="fill:none;stroke:rgb(0,0,0);stroke-width:1;stroke-opacity:0.25098039215686274" shape-rendering="crispEdges" />
    <polyline points="617.838,34.106 617.838,556.894" style="fill:none;stroke:rgb(0,0,0);stroke-width:1;stroke-opacity:0.25098039215686274" shape-rendering="crispEdges" />
    <polyline points="681.0921,34.106 681.0921,556.894" style="fill:none;stroke:rgb(0,0,0);stroke-width:1;stroke-opacity:0.25098039215686274" shape-rendering="crispEdges" />
    <polyline points="744.3462,34.106 744.3462,556.894" style="fill:none;stroke:rgb(0,0,0);stroke-width:1;stroke-opacity:0.25098039215686274" shape-rendering="crispEdges" />
    <polyline points="48.551,556.894 48.551,563.894" style="fill:none;stroke:black;stroke-width:1" shape-rendering="crispEdges" />
    <polyline points="111.8051,556.894 111.8051,563.894" style="fill:none;stroke:black;stroke-width:1" shape-rendering="crispEdges" />
    <polyline points="175.0592,556.894 175.0592,563.894" style="fill:none;stroke:black;stroke-width:1" shape-rendering="crispEdges" />
    <polyline points="238.3133,556.894 238.3133,563.894" style="fill:none;stroke:black;stroke-width:1" shape-rendering="crispEdges" />
    <polyline points="301.5674,556.894 301.5674,563.894" style="fill:none;stroke:black;stroke-width:1" shape-rendering="crispEdges" />
    <polyline points="364.8216,556.894 364.8216,563.894" style="fill:none;stroke:black;stroke-width:1" shape-rendering="crispEdges" />
    <polyline points="428.0757,556.894 428.0757,563.894" style="fill:none;stroke:black;stroke-width:1" shape-rendering="crispEdges" />
    <polyline points="491.3298,556.894 491.3298,563.894" style="fill:none;stroke:black;stroke-width:1" shape-rendering="crispEdges" />
    <polyline points="554.5839,556.894 554.5839,563.894" style="fill:none;stroke:black;stroke-width:1" shape-rendering="crispEdges" />
    <polyline points="617.838,556.894 617.838,563.894" style="fill:none;stroke:black;stroke-width:1" shape-rendering="crispEdges" />
    <polyline points="681.0921,556.894 681.0921,563.894" style="fill:none;stroke:black;stroke-width:1" shape-rendering="crispEdges" />
    <polyline points="744.3462,556.894 744.3462,563.894" style="fill:none;stroke:black;stroke-width:1" shape-rendering="crispEdges" />
    <text dominant-baseline="baseline" text-anchor="middle" transform="translate(415.8993,588)" font-family="Segoe UI" font-size="12" font-weight="400" fill="black">Meses</text>
    <text dominant-baseline="middle" text-anchor="end" transform="translate(37.551,556.894)" font-family="Segoe UI" font-size="12" font-weight="400" fill="black">-0.4</text>
    <text dominant-baseline="middle" text-anchor="end" transform="translate(37.551,491.5455)" font-family="Segoe UI" font-size="12" font-weight="400" fill="black">-0.3</text>
    <text dominant-baseline="middle" text-anchor="end" transform="translate(37.551,426.197)" font-family="Segoe UI" font-size="12" font-weight="400" fill="black">-0.2</text>
    <text dominant-baseline="middle" text-anchor="end" transform="translate(37.551,360.8485)" font-family="Segoe UI" font-size="12" font-weight="400" fill="black">-0.1</text>
    <text dominant-baseline="middle" text-anchor="end" transform="translate(37.551,295.5)" font-family="Segoe UI" font-size="12" font-weight="400" fill="black">0</text>
    <text dominant-baseline="middle" text-anchor="end" transform="translate(37.551,230.1515)" font-family="Segoe UI" font-size="12" font-weight="400" fill="black">0.1</text>
    <text dominant-baseline="middle" text-anchor="end" transform="translate(37.551,164.803)" font-family="Segoe UI" font-size="12" font-weight="400" fill="black">0.2</text>
    <text dominant-baseline="middle" text-anchor="end" transform="translate(37.551,99.4545)" font-family="Segoe UI" font-size="12" font-weight="400" fill="black">0.3</text>
    <text dominant-baseline="middle" text-anchor="end" transform="translate(37.551,34.106)" font-family="Segoe UI" font-size="12" font-weight="400" fill="black">0.4</text>
    <polyline points="48.551,556.894 783.2475,556.894" style="fill:none;stroke:rgb(0,0,0);stroke-width:1;stroke-opacity:0.25098039215686274" shape-rendering="crispEdges" />
    <polyline points="48.551,491.5455 783.2475,491.5455" style="fill:none;stroke:rgb(0,0,0);stroke-width:1;stroke-opacity:0.25098039215686274" shape-rendering="crispEdges" />
    <polyline points="48.551,426.197 783.2475,426.197" style="fill:none;stroke:rgb(0,0,0);stroke-width:1;stroke-opacity:0.25098039215686274" shape-rendering="crispEdges" />
    <polyline points="48.551,360.8485 783.2475,360.8485" style="fill:none;stroke:rgb(0,0,0);stroke-width:1;stroke-opacity:0.25098039215686274" shape-rendering="crispEdges" />
    <polyline points="48.551,295.5 783.2475,295.5" style="fill:none;stroke:rgb(0,0,0);stroke-width:1;stroke-opacity:0.25098039215686274" shape-rendering="crispEdges" />
    <polyline points="48.551,230.1515 783.2475,230.1515" style="fill:none;stroke:rgb(0,0,0);stroke-width:1;stroke-opacity:0.25098039215686274" shape-rendering="crispEdges" />
    <polyline points="48.551,164.803 783.2475,164.803" style="fill:none;stroke:rgb(0,0,0);stroke-width:1;stroke-opacity:0.25098039215686274" shape-rendering="crispEdges" />
    <polyline points="48.551,99.4545 783.2475,99.4545" style="fill:none;stroke:rgb(0,0,0);stroke-width:1;stroke-opacity:0.25098039215686274" shape-rendering="crispEdges" />
    <polyline points="48.551,34.106 783.2475,34.106" style="fill:none;stroke:rgb(0,0,0);stroke-width:1;stroke-opacity:0.25098039215686274" shape-rendering="crispEdges" />
    <polyline points="48.551,556.894 41.551,556.894" style="fill:none;stroke:black;stroke-width:1" shape-rendering="crispEdges" />
    <polyline points="48.551,491.5455 41.551,491.5455" style="fill:none;stroke:black;stroke-width:1" shape-rendering="crispEdges" />
    <polyline points="48.551,426.197 41.551,426.197" style="fill:none;stroke:black;stroke-width:1" shape-rendering="crispEdges" />
    <polyline points="48.551,360.8485 41.551,360.8485" style="fill:none;stroke:black;stroke-width:1" shape-rendering="crispEdges" />
    <polyline points="48.551,295.5 41.551,295.5" style="fill:none;stroke:black;stroke-width:1" shape-rendering="crispEdges" />
    <polyline points="48.551,230.1515 41.551,230.1515" style="fill:none;stroke:black;stroke-width:1" shape-rendering="crispEdges" />
    <polyline points="48.551,164.803 41.551,164.803" style="fill:none;stroke:black;stroke-width:1" shape-rendering="crispEdges" />
    <polyline points="48.551,99.4545 41.551,99.4545" style="fill:none;stroke:black;stroke-width:1" shape-rendering="crispEdges" />
    <polyline points="48.551,34.106 41.551,34.106" style="fill:none;stroke:black;stroke-width:1" shape-rendering="crispEdges" />
    <text dominant-baseline="hanging" text-anchor="middle" transform="translate(12,295.5) rotate(-90)" font-family="Segoe UI" font-size="12" font-weight="400" fill="black">Taxa</text>
  </g>
  <defs>
    <clipPath id="clipPath2">
      <rect x="48.551" y="34.106" width="734.6965" height="522.788" />
    </clipPath>
  </defs>
  <g clip-path="url(#clipPath2)">
    <polyline points="48.551,451.4259 80.1781,431.7059 111.8051,413.3859 143.4322,398.5399 175.0592,386.0148 206.6863,375.0735 301.5674,351.3499 396.4486,336.1703 491.3298,326.1712 586.2109,319.0398 775.9733,309.7762" style="fill:none;stroke:rgb(78,154,6);stroke-width:2;stroke-linejoin:bevel" />
    <ellipse cx="48.551" cy="451.4259" rx="3" ry="3" style="fill:rgb(78,154,6);stroke:none;" shape-rendering="geometricPrecision" />
    <ellipse cx="80.1781" cy="431.7059" rx="3" ry="3" style="fill:rgb(78,154,6);stroke:none;" shape-rendering="geometricPrecision" />
    <ellipse cx="111.8051" cy="413.3859" rx="3" ry="3" style="fill:rgb(78,154,6);stroke:none;" shape-rendering="geometricPrecision" />
    <ellipse cx="143.4322" cy="398.5399" rx="3" ry="3" style="fill:rgb(78,154,6);stroke:none;" shape-rendering="geometricPrecision" />
    <ellipse cx="175.0592" cy="386.0148" rx="3" ry="3" style="fill:rgb(78,154,6);stroke:none;" shape-rendering="geometricPrecision" />
    <ellipse cx="206.6863" cy="375.0735" rx="3" ry="3" style="fill:rgb(78,154,6);stroke:none;" shape-rendering="geometricPrecision" />
    <ellipse cx="301.5674" cy="351.3499" rx="3" ry="3" style="fill:rgb(78,154,6);stroke:none;" shape-rendering="geometricPrecision" />
    <ellipse cx="396.4486" cy="336.1703" rx="3" ry="3" style="fill:rgb(78,154,6);stroke:none;" shape-rendering="geometricPrecision" />
    <ellipse cx="491.3298" cy="326.1712" rx="3" ry="3" style="fill:rgb(78,154,6);stroke:none;" shape-rendering="geometricPrecision" />
    <ellipse cx="586.2109" cy="319.0398" rx="3" ry="3" style="fill:rgb(78,154,6);stroke:none;" shape-rendering="geometricPrecision" />
    <ellipse cx="775.9733" cy="309.7762" rx="3" ry="3" style="fill:rgb(78,154,6);stroke:none;" shape-rendering="geometricPrecision" />
    <polyline points="48.551,438.3635 80.1781,422.9725 111.8051,408.2524 143.4322,395.9719 175.0592,385.3243 206.6863,375.7748 301.5674,354.0975 396.4486,339.3554 491.3298,329.1885 586.2109,321.6967 775.9733,311.6819" style="fill:none;stroke:rgb(200,141,0);stroke-width:2;stroke-linejoin:bevel" />
    <ellipse cx="48.551" cy="438.3635" rx="3" ry="3" style="fill:rgb(200,141,0);stroke:none;" shape-rendering="geometricPrecision" />
    <ellipse cx="80.1781" cy="422.9725" rx="3" ry="3" style="fill:rgb(200,141,0);stroke:none;" shape-rendering="geometricPrecision" />
    <ellipse cx="111.8051" cy="408.2524" rx="3" ry="3" style="fill:rgb(200,141,0);stroke:none;" shape-rendering="geometricPrecision" />
    <ellipse cx="143.4322" cy="395.9719" rx="3" ry="3" style="fill:rgb(200,141,0);stroke:none;" shape-rendering="geometricPrecision" />
    <ellipse cx="175.0592" cy="385.3243" rx="3" ry="3" style="fill:rgb(200,141,0);stroke:none;" shape-rendering="geometricPrecision" />
    <ellipse cx="206.6863" cy="375.7748" rx="3" ry="3" style="fill:rgb(200,141,0);stroke:none;" shape-rendering="geometricPrecision" />
    <ellipse cx="301.5674" cy="354.0975" rx="3" ry="3" style="fill:rgb(200,141,0);stroke:none;" shape-rendering="geometricPrecision" />
    <ellipse cx="396.4486" cy="339.3554" rx="3" ry="3" style="fill:rgb(200,141,0);stroke:none;" shape-rendering="geometricPrecision" />
    <ellipse cx="491.3298" cy="329.1885" rx="3" ry="3" style="fill:rgb(200,141,0);stroke:none;" shape-rendering="geometricPrecision" />
    <ellipse cx="586.2109" cy="321.6967" rx="3" ry="3" style="fill:rgb(200,141,0);stroke:none;" shape-rendering="geometricPrecision" />
    <ellipse cx="775.9733" cy="311.6819" rx="3" ry="3" style="fill:rgb(200,141,0);stroke:none;" shape-rendering="geometricPrecision" />
    <polyline points="48.551,427.9129 80.1781,416.5217 111.8051,405.0734 143.4322,395.0379 175.0592,385.9211 206.6863,377.3648 301.5674,356.2946 396.4486,340.2681 491.3298,328.1505 586.2109,318.5381 775.9733,304.6408" style="fill:none;stroke:rgb(204,0,0);stroke-width:2;stroke-linejoin:bevel" />
    <ellipse cx="48.551" cy="427.9129" rx="3" ry="3" style="fill:rgb(204,0,0);stroke:none;" shape-rendering="geometricPrecision" />
    <ellipse cx="80.1781" cy="416.5217" rx="3" ry="3" style="fill:rgb(204,0,0);stroke:none;" shape-rendering="geometricPrecision" />
    <ellipse cx="111.8051" cy="405.0734" rx="3" ry="3" style="fill:rgb(204,0,0);stroke:none;" shape-rendering="geometricPrecision" />
    <ellipse cx="143.4322" cy="395.0379" rx="3" ry="3" style="fill:rgb(204,0,0);stroke:none;" shape-rendering="geometricPrecision" />
    <ellipse cx="175.0592" cy="385.9211" rx="3" ry="3" style="fill:rgb(204,0,0);stroke:none;" shape-rendering="geometricPrecision" />
    <ellipse cx="206.6863" cy="377.3648" rx="3" ry="3" style="fill:rgb(204,0,0);stroke:none;" shape-rendering="geometricPrecision" />
    <ellipse cx="301.5674" cy="356.2946" rx="3" ry="3" style="fill:rgb(204,0,0);stroke:none;" shape-rendering="geometricPrecision" />
    <ellipse cx="396.4486" cy="340.2681" rx="3" ry="3" style="fill:rgb(204,0,0);stroke:none;" shape-rendering="geometricPrecision" />
    <ellipse cx="491.3298" cy="328.1505" rx="3" ry="3" style="fill:rgb(204,0,0);stroke:none;" shape-rendering="geometricPrecision" />
    <ellipse cx="586.2109" cy="318.5381" rx="3" ry="3" style="fill:rgb(204,0,0);stroke:none;" shape-rendering="geometricPrecision" />
    <ellipse cx="775.9733" cy="304.6408" rx="3" ry="3" style="fill:rgb(204,0,0);stroke:none;" shape-rendering="geometricPrecision" />
    <polyline points="48.551,299.4402 80.1781,332.9167 111.8051,349.6337 143.4322,355.1261 175.0592,355.4211 206.6863,353.2156 301.5674,343.4936 396.4486,335.7015 491.3298,330.5259 586.2109,326.9185 775.9733,322.3478" style="fill:none;stroke:rgb(32,74,135);stroke-width:2;stroke-linejoin:bevel" />
    <ellipse cx="48.551" cy="299.4402" rx="3" ry="3" style="fill:rgb(32,74,135);stroke:none;" shape-rendering="geometricPrecision" />
    <ellipse cx="80.1781" cy="332.9167" rx="3" ry="3" style="fill:rgb(32,74,135);stroke:none;" shape-rendering="geometricPrecision" />
    <ellipse cx="111.8051" cy="349.6337" rx="3" ry="3" style="fill:rgb(32,74,135);stroke:none;" shape-rendering="geometricPrecision" />
    <ellipse cx="143.4322" cy="355.1261" rx="3" ry="3" style="fill:rgb(32,74,135);stroke:none;" shape-rendering="geometricPrecision" />
    <ellipse cx="175.0592" cy="355.4211" rx="3" ry="3" style="fill:rgb(32,74,135);stroke:none;" shape-rendering="geometricPrecision" />
    <ellipse cx="206.6863" cy="353.2156" rx="3" ry="3" style="fill:rgb(32,74,135);stroke:none;" shape-rendering="geometricPrecision" />
    <ellipse cx="301.5674" cy="343.4936" rx="3" ry="3" style="fill:rgb(32,74,135);stroke:none;" shape-rendering="geometricPrecision" />
    <ellipse cx="396.4486" cy="335.7015" rx="3" ry="3" style="fill:rgb(32,74,135);stroke:none;" shape-rendering="geometricPrecision" />
    <ellipse cx="491.3298" cy="330.5259" rx="3" ry="3" style="fill:rgb(32,74,135);stroke:none;" shape-rendering="geometricPrecision" />
    <ellipse cx="586.2109" cy="326.9185" rx="3" ry="3" style="fill:rgb(32,74,135);stroke:none;" shape-rendering="geometricPrecision" />
    <ellipse cx="775.9733" cy="322.3478" rx="3" ry="3" style="fill:rgb(32,74,135);stroke:none;" shape-rendering="geometricPrecision" />
    <polyline points="48.551,205.4785 80.1781,278.458 111.8051,306.2641 143.4322,318.6852 175.0592,325.8621 206.6863,330.6633 301.5674,338.2986 396.4486,341.9986 491.3298,344.1445 586.2109,345.5842 775.9733,347.3865" style="fill:none;stroke:rgb(255,0,0);stroke-width:2;stroke-linejoin:bevel" />
    <ellipse cx="48.551" cy="205.4785" rx="3" ry="3" style="fill:rgb(255,0,0);stroke:none;" shape-rendering="geometricPrecision" />
    <ellipse cx="80.1781" cy="278.458" rx="3" ry="3" style="fill:rgb(255,0,0);stroke:none;" shape-rendering="geometricPrecision" />
    <ellipse cx="111.8051" cy="306.2641" rx="3" ry="3" style="fill:rgb(255,0,0);stroke:none;" shape-rendering="geometricPrecision" />
    <ellipse cx="143.4322" cy="318.6852" rx="3" ry="3" style="fill:rgb(255,0,0);stroke:none;" shape-rendering="geometricPrecision" />
    <ellipse cx="175.0592" cy="325.8621" rx="3" ry="3" style="fill:rgb(255,0,0);stroke:none;" shape-rendering="geometricPrecision" />
    <ellipse cx="206.6863" cy="330.6633" rx="3" ry="3" style="fill:rgb(255,0,0);stroke:none;" shape-rendering="geometricPrecision" />
    <ellipse cx="301.5674" cy="338.2986" rx="3" ry="3" style="fill:rgb(255,0,0);stroke:none;" shape-rendering="geometricPrecision" />
    <ellipse cx="396.4486" cy="341.9986" rx="3" ry="3" style="fill:rgb(255,0,0);stroke:none;" shape-rendering="geometricPrecision" />
    <ellipse cx="491.3298" cy="344.1445" rx="3" ry="3" style="fill:rgb(255,0,0);stroke:none;" shape-rendering="geometricPrecision" />
    <ellipse cx="586.2109" cy="345.5842" rx="3" ry="3" style="fill:rgb(255,0,0);stroke:none;" shape-rendering="geometricPrecision" />
    <ellipse cx="775.9733" cy="347.3865" rx="3" ry="3" style="fill:rgb(255,0,0);stroke:none;" shape-rendering="geometricPrecision" />
    <polyline points="48.551,275.211 80.1781,311.3173 111.8051,333.3636 143.4322,344.065 175.0592,348.7575 206.6863,350.0671 301.5674,346.0121 396.4486,340.178 491.3298,335.6919 586.2109,332.3879 775.9733,328.1007" style="fill:none;stroke:rgb(255,165,0);stroke-width:2;stroke-linejoin:bevel" />
    <ellipse cx="48.551" cy="275.211" rx="3" ry="3" style="fill:rgb(255,165,0);stroke:none;" shape-rendering="geometricPrecision" />
    <ellipse cx="80.1781" cy="311.3173" rx="3" ry="3" style="fill:rgb(255,165,0);stroke:none;" shape-rendering="geometricPrecision" />
    <ellipse cx="111.8051" cy="333.3636" rx="3" ry="3" style="fill:rgb(255,165,0);stroke:none;" shape-rendering="geometricPrecision" />
    <ellipse cx="143.4322" cy="344.065" rx="3" ry="3" style="fill:rgb(255,165,0);stroke:none;" shape-rendering="geometricPrecision" />
    <ellipse cx="175.0592" cy="348.7575" rx="3" ry="3" style="fill:rgb(255,165,0);stroke:none;" shape-rendering="geometricPrecision" />
    <ellipse cx="206.6863" cy="350.0671" rx="3" ry="3" style="fill:rgb(255,165,0);stroke:none;" shape-rendering="geometricPrecision" />
    <ellipse cx="301.5674" cy="346.0121" rx="3" ry="3" style="fill:rgb(255,165,0);stroke:none;" shape-rendering="geometricPrecision" />
    <ellipse cx="396.4486" cy="340.178" rx="3" ry="3" style="fill:rgb(255,165,0);stroke:none;" shape-rendering="geometricPrecision" />
    <ellipse cx="491.3298" cy="335.6919" rx="3" ry="3" style="fill:rgb(255,165,0);stroke:none;" shape-rendering="geometricPrecision" />
    <ellipse cx="586.2109" cy="332.3879" rx="3" ry="3" style="fill:rgb(255,165,0);stroke:none;" shape-rendering="geometricPrecision" />
    <ellipse cx="775.9733" cy="328.1007" rx="3" ry="3" style="fill:rgb(255,165,0);stroke:none;" shape-rendering="geometricPrecision" />
    <polyline points="48.551,-29433.5761 80.1781,-29434.1922 111.8051,-29434.3713 143.4322,-29434.4484 175.0592,-29434.4925 206.6863,-29434.5219 301.5674,-29434.5682 396.4486,-29434.5905 491.3298,-29434.6034 586.2109,-29434.612 775.9733,-29434.6228" style="fill:none;stroke:rgb(255,255,0);stroke-width:2;stroke-linejoin:bevel" />
    <ellipse cx="48.551" cy="-29433.5761" rx="3" ry="3" style="fill:rgb(255,255,0);stroke:none;" shape-rendering="geometricPrecision" />
    <ellipse cx="80.1781" cy="-29434.1922" rx="3" ry="3" style="fill:rgb(255,255,0);stroke:none;" shape-rendering="geometricPrecision" />
    <ellipse cx="111.8051" cy="-29434.3713" rx="3" ry="3" style="fill:rgb(255,255,0);stroke:none;" shape-rendering="geometricPrecision" />
    <ellipse cx="143.4322" cy="-29434.4484" rx="3" ry="3" style="fill:rgb(255,255,0);stroke:none;" shape-rendering="geometricPrecision" />
    <ellipse cx="175.0592" cy="-29434.4925" rx="3" ry="3" style="fill:rgb(255,255,0);stroke:none;" shape-rendering="geometricPrecision" />
    <ellipse cx="206.6863" cy="-29434.5219" rx="3" ry="3" style="fill:rgb(255,255,0);stroke:none;" shape-rendering="geometricPrecision" />
    <ellipse cx="301.5674" cy="-29434.5682" rx="3" ry="3" style="fill:rgb(255,255,0);stroke:none;" shape-rendering="geometricPrecision" />
    <ellipse cx="396.4486" cy="-29434.5905" rx="3" ry="3" style="fill:rgb(255,255,0);stroke:none;" shape-rendering="geometricPrecision" />
    <ellipse cx="491.3298" cy="-29434.6034" rx="3" ry="3" style="fill:rgb(255,255,0);stroke:none;" shape-rendering="geometricPrecision" />
    <ellipse cx="586.2109" cy="-29434.612" rx="3" ry="3" style="fill:rgb(255,255,0);stroke:none;" shape-rendering="geometricPrecision" />
    <ellipse cx="775.9733" cy="-29434.6228" rx="3" ry="3" style="fill:rgb(255,255,0);stroke:none;" shape-rendering="geometricPrecision" />
    <polyline points="48.551,207.8244 80.1781,286.1752 111.8051,312.0033 143.4322,322.8637 175.0592,328.9694 206.6863,332.9878 301.5674,339.2717 396.4486,342.2708 491.3298,343.9967 586.2109,345.1491 775.9733,346.5856" style="fill:none;stroke:rgb(0,128,0);stroke-width:2;stroke-linejoin:bevel" />
    <ellipse cx="48.551" cy="207.8244" rx="3" ry="3" style="fill:rgb(0,128,0);stroke:none;" shape-rendering="geometricPrecision" />
    <ellipse cx="80.1781" cy="286.1752" rx="3" ry="3" style="fill:rgb(0,128,0);stroke:none;" shape-rendering="geometricPrecision" />
    <ellipse cx="111.8051" cy="312.0033" rx="3" ry="3" style="fill:rgb(0,128,0);stroke:none;" shape-rendering="geometricPrecision" />
    <ellipse cx="143.4322" cy="322.8637" rx="3" ry="3" style="fill:rgb(0,128,0);stroke:none;" shape-rendering="geometricPrecision" />
    <ellipse cx="175.0592" cy="328.9694" rx="3" ry="3" style="fill:rgb(0,128,0);stroke:none;" shape-rendering="geometricPrecision" />
    <ellipse cx="206.6863" cy="332.9878" rx="3" ry="3" style="fill:rgb(0,128,0);stroke:none;" shape-rendering="geometricPrecision" />
    <ellipse cx="301.5674" cy="339.2717" rx="3" ry="3" style="fill:rgb(0,128,0);stroke:none;" shape-rendering="geometricPrecision" />
    <ellipse cx="396.4486" cy="342.2708" rx="3" ry="3" style="fill:rgb(0,128,0);stroke:none;" shape-rendering="geometricPrecision" />
    <ellipse cx="491.3298" cy="343.9967" rx="3" ry="3" style="fill:rgb(0,128,0);stroke:none;" shape-rendering="geometricPrecision" />
    <ellipse cx="586.2109" cy="345.1491" rx="3" ry="3" style="fill:rgb(0,128,0);stroke:none;" shape-rendering="geometricPrecision" />
    <ellipse cx="775.9733" cy="346.5856" rx="3" ry="3" style="fill:rgb(0,128,0);stroke:none;" shape-rendering="geometricPrecision" />
    <polyline points="48.551,371.9398 80.1781,376.0723 111.8051,378.7148 143.4322,379.7307 175.0592,379.5556 206.6863,378.4024 301.5674,371.2424 396.4486,361.3954 491.3298,351.2498 586.2109,341.4827 775.9733,324.6651" style="fill:none;stroke:rgb(0,0,255);stroke-width:2;stroke-linejoin:bevel" />
    <ellipse cx="48.551" cy="371.9398" rx="3" ry="3" style="fill:rgb(0,0,255);stroke:none;" shape-rendering="geometricPrecision" />
    <ellipse cx="80.1781" cy="376.0723" rx="3" ry="3" style="fill:rgb(0,0,255);stroke:none;" shape-rendering="geometricPrecision" />
    <ellipse cx="111.8051" cy="378.7148" rx="3" ry="3" style="fill:rgb(0,0,255);stroke:none;" shape-rendering="geometricPrecision" />
    <ellipse cx="143.4322" cy="379.7307" rx="3" ry="3" style="fill:rgb(0,0,255);stroke:none;" shape-rendering="geometricPrecision" />
    <ellipse cx="175.0592" cy="379.5556" rx="3" ry="3" style="fill:rgb(0,0,255);stroke:none;" shape-rendering="geometricPrecision" />
    <ellipse cx="206.6863" cy="378.4024" rx="3" ry="3" style="fill:rgb(0,0,255);stroke:none;" shape-rendering="geometricPrecision" />
    <ellipse cx="301.5674" cy="371.2424" rx="3" ry="3" style="fill:rgb(0,0,255);stroke:none;" shape-rendering="geometricPrecision" />
    <ellipse cx="396.4486" cy="361.3954" rx="3" ry="3" style="fill:rgb(0,0,255);stroke:none;" shape-rendering="geometricPrecision" />
    <ellipse cx="491.3298" cy="351.2498" rx="3" ry="3" style="fill:rgb(0,0,255);stroke:none;" shape-rendering="geometricPrecision" />
    <ellipse cx="586.2109" cy="341.4827" rx="3" ry="3" style="fill:rgb(0,0,255);stroke:none;" shape-rendering="geometricPrecision" />
    <ellipse cx="775.9733" cy="324.6651" rx="3" ry="3" style="fill:rgb(0,0,255);stroke:none;" shape-rendering="geometricPrecision" />
    <polyline points="48.551,220.2964 80.1781,310.3944 111.8051,340.1196 143.4322,348.0523 175.0592,350.1855 206.6863,350.6817 301.5674,350.5744 396.4486,350.3945 491.3298,350.2876 586.2109,350.2163 775.9733,350.1275" style="fill:none;stroke:rgb(75,0,130);stroke-width:2;stroke-linejoin:bevel" />
    <ellipse cx="48.551" cy="220.2964" rx="3" ry="3" style="fill:rgb(75,0,130);stroke:none;" shape-rendering="geometricPrecision" />
    <ellipse cx="80.1781" cy="310.3944" rx="3" ry="3" style="fill:rgb(75,0,130);stroke:none;" shape-rendering="geometricPrecision" />
    <ellipse cx="111.8051" cy="340.1196" rx="3" ry="3" style="fill:rgb(75,0,130);stroke:none;" shape-rendering="geometricPrecision" />
    <ellipse cx="143.4322" cy="348.0523" rx="3" ry="3" style="fill:rgb(75,0,130);stroke:none;" shape-rendering="geometricPrecision" />
    <ellipse cx="175.0592" cy="350.1855" rx="3" ry="3" style="fill:rgb(75,0,130);stroke:none;" shape-rendering="geometricPrecision" />
    <ellipse cx="206.6863" cy="350.6817" rx="3" ry="3" style="fill:rgb(75,0,130);stroke:none;" shape-rendering="geometricPrecision" />
    <ellipse cx="301.5674" cy="350.5744" rx="3" ry="3" style="fill:rgb(75,0,130);stroke:none;" shape-rendering="geometricPrecision" />
    <ellipse cx="396.4486" cy="350.3945" rx="3" ry="3" style="fill:rgb(75,0,130);stroke:none;" shape-rendering="geometricPrecision" />
    <ellipse cx="491.3298" cy="350.2876" rx="3" ry="3" style="fill:rgb(75,0,130);stroke:none;" shape-rendering="geometricPrecision" />
    <ellipse cx="586.2109" cy="350.2163" rx="3" ry="3" style="fill:rgb(75,0,130);stroke:none;" shape-rendering="geometricPrecision" />
    <ellipse cx="775.9733" cy="350.1275" rx="3" ry="3" style="fill:rgb(75,0,130);stroke:none;" shape-rendering="geometricPrecision" />
    <polyline points="48.551,488.7481 80.1781,452.9967 111.8051,425.1808 143.4322,406.143 175.0592,392.3082 206.6863,381.7407 301.5674,363.0099 396.4486,353.4308 491.3298,347.8574 586.2109,344.1353 775.9733,339.505" style="fill:none;stroke:rgb(238,130,238);stroke-width:2;stroke-linejoin:bevel" />
    <ellipse cx="48.551" cy="488.7481" rx="3" ry="3" style="fill:rgb(238,130,238);stroke:none;" shape-rendering="geometricPrecision" />
    <ellipse cx="80.1781" cy="452.9967" rx="3" ry="3" style="fill:rgb(238,130,238);stroke:none;" shape-rendering="geometricPrecision" />
    <ellipse cx="111.8051" cy="425.1808" rx="3" ry="3" style="fill:rgb(238,130,238);stroke:none;" shape-rendering="geometricPrecision" />
    <ellipse cx="143.4322" cy="406.143" rx="3" ry="3" style="fill:rgb(238,130,238);stroke:none;" shape-rendering="geometricPrecision" />
    <ellipse cx="175.0592" cy="392.3082" rx="3" ry="3" style="fill:rgb(238,130,238);stroke:none;" shape-rendering="geometricPrecision" />
    <ellipse cx="206.6863" cy="381.7407" rx="3" ry="3" style="fill:rgb(238,130,238);stroke:none;" shape-rendering="geometricPrecision" />
    <ellipse cx="301.5674" cy="363.0099" rx="3" ry="3" style="fill:rgb(238,130,238);stroke:none;" shape-rendering="geometricPrecision" />
    <ellipse cx="396.4486" cy="353.4308" rx="3" ry="3" style="fill:rgb(238,130,238);stroke:none;" shape-rendering="geometricPrecision" />
    <ellipse cx="491.3298" cy="347.8574" rx="3" ry="3" style="fill:rgb(238,130,238);stroke:none;" shape-rendering="geometricPrecision" />
    <ellipse cx="586.2109" cy="344.1353" rx="3" ry="3" style="fill:rgb(238,130,238);stroke:none;" shape-rendering="geometricPrecision" />
    <ellipse cx="775.9733" cy="339.505" rx="3" ry="3" style="fill:rgb(238,130,238);stroke:none;" shape-rendering="geometricPrecision" />
    <polyline points="48.551,491.4559 80.1781,448.4821 111.8051,418.5209 143.4322,399.873 175.0592,387.2914 206.6863,378.2209 301.5674,363.1693 396.4486,355.8445 491.3298,351.6402 586.2109,348.8425 775.9733,345.3673" style="fill:none;stroke:rgb(78,154,6);stroke-width:2;stroke-linejoin:bevel;stroke-dasharray:4,1" />
    <ellipse cx="48.551" cy="491.4559" rx="3" ry="3" style="fill:rgb(78,154,6);stroke:none;" shape-rendering="geometricPrecision" />
    <ellipse cx="80.1781" cy="448.4821" rx="3" ry="3" style="fill:rgb(78,154,6);stroke:none;" shape-rendering="geometricPrecision" />
    <ellipse cx="111.8051" cy="418.5209" rx="3" ry="3" style="fill:rgb(78,154,6);stroke:none;" shape-rendering="geometricPrecision" />
    <ellipse cx="143.4322" cy="399.873" rx="3" ry="3" style="fill:rgb(78,154,6);stroke:none;" shape-rendering="geometricPrecision" />
    <ellipse cx="175.0592" cy="387.2914" rx="3" ry="3" style="fill:rgb(78,154,6);stroke:none;" shape-rendering="geometricPrecision" />
    <ellipse cx="206.6863" cy="378.2209" rx="3" ry="3" style="fill:rgb(78,154,6);stroke:none;" shape-rendering="geometricPrecision" />
    <ellipse cx="301.5674" cy="363.1693" rx="3" ry="3" style="fill:rgb(78,154,6);stroke:none;" shape-rendering="geometricPrecision" />
    <ellipse cx="396.4486" cy="355.8445" rx="3" ry="3" style="fill:rgb(78,154,6);stroke:none;" shape-rendering="geometricPrecision" />
    <ellipse cx="491.3298" cy="351.6402" rx="3" ry="3" style="fill:rgb(78,154,6);stroke:none;" shape-rendering="geometricPrecision" />
    <ellipse cx="586.2109" cy="348.8425" rx="3" ry="3" style="fill:rgb(78,154,6);stroke:none;" shape-rendering="geometricPrecision" />
    <ellipse cx="775.9733" cy="345.3673" rx="3" ry="3" style="fill:rgb(78,154,6);stroke:none;" shape-rendering="geometricPrecision" />
    <polyline points="48.551,371.6274 80.1781,376.7117 111.8051,379.8961 143.4322,381.0828 175.0592,380.85 206.6863,379.49 301.5674,371.4166 396.4486,360.8207 491.3298,350.3469 586.2109,340.6295 775.9733,324.6552" style="fill:none;stroke:rgb(200,141,0);stroke-width:2;stroke-linejoin:bevel;stroke-dasharray:4,1" />
    <ellipse cx="48.551" cy="371.6274" rx="3" ry="3" style="fill:rgb(200,141,0);stroke:none;" shape-rendering="geometricPrecision" />
    <ellipse cx="80.1781" cy="376.7117" rx="3" ry="3" style="fill:rgb(200,141,0);stroke:none;" shape-rendering="geometricPrecision" />
    <ellipse cx="111.8051" cy="379.8961" rx="3" ry="3" style="fill:rgb(200,141,0);stroke:none;" shape-rendering="geometricPrecision" />
    <ellipse cx="143.4322" cy="381.0828" rx="3" ry="3" style="fill:rgb(200,141,0);stroke:none;" shape-rendering="geometricPrecision" />
    <ellipse cx="175.0592" cy="380.85" rx="3" ry="3" style="fill:rgb(200,141,0);stroke:none;" shape-rendering="geometricPrecision" />
    <ellipse cx="206.6863" cy="379.49" rx="3" ry="3" style="fill:rgb(200,141,0);stroke:none;" shape-rendering="geometricPrecision" />
    <ellipse cx="301.5674" cy="371.4166" rx="3" ry="3" style="fill:rgb(200,141,0);stroke:none;" shape-rendering="geometricPrecision" />
    <ellipse cx="396.4486" cy="360.8207" rx="3" ry="3" style="fill:rgb(200,141,0);stroke:none;" shape-rendering="geometricPrecision" />
    <ellipse cx="491.3298" cy="350.3469" rx="3" ry="3" style="fill:rgb(200,141,0);stroke:none;" shape-rendering="geometricPrecision" />
    <ellipse cx="586.2109" cy="340.6295" rx="3" ry="3" style="fill:rgb(200,141,0);stroke:none;" shape-rendering="geometricPrecision" />
    <ellipse cx="775.9733" cy="324.6552" rx="3" ry="3" style="fill:rgb(200,141,0);stroke:none;" shape-rendering="geometricPrecision" />
    <polyline points="48.551,545.4158 80.1781,450.326 111.8051,408.6338 143.4322,389.9736 175.0592,379.632 206.6863,372.9844 301.5674,362.9021 396.4486,358.2273 491.3298,355.5763 586.2109,353.8218 775.9733,351.6521" style="fill:none;stroke:rgb(204,0,0);stroke-width:2;stroke-linejoin:bevel;stroke-dasharray:4,1" />
    <ellipse cx="48.551" cy="545.4158" rx="3" ry="3" style="fill:rgb(204,0,0);stroke:none;" shape-rendering="geometricPrecision" />
    <ellipse cx="80.1781" cy="450.326" rx="3" ry="3" style="fill:rgb(204,0,0);stroke:none;" shape-rendering="geometricPrecision" />
    <ellipse cx="111.8051" cy="408.6338" rx="3" ry="3" style="fill:rgb(204,0,0);stroke:none;" shape-rendering="geometricPrecision" />
    <ellipse cx="143.4322" cy="389.9736" rx="3" ry="3" style="fill:rgb(204,0,0);stroke:none;" shape-rendering="geometricPrecision" />
    <ellipse cx="175.0592" cy="379.632" rx="3" ry="3" style="fill:rgb(204,0,0);stroke:none;" shape-rendering="geometricPrecision" />
    <ellipse cx="206.6863" cy="372.9844" rx="3" ry="3" style="fill:rgb(204,0,0);stroke:none;" shape-rendering="geometricPrecision" />
    <ellipse cx="301.5674" cy="362.9021" rx="3" ry="3" style="fill:rgb(204,0,0);stroke:none;" shape-rendering="geometricPrecision" />
    <ellipse cx="396.4486" cy="358.2273" rx="3" ry="3" style="fill:rgb(204,0,0);stroke:none;" shape-rendering="geometricPrecision" />
    <ellipse cx="491.3298" cy="355.5763" rx="3" ry="3" style="fill:rgb(204,0,0);stroke:none;" shape-rendering="geometricPrecision" />
    <ellipse cx="586.2109" cy="353.8218" rx="3" ry="3" style="fill:rgb(204,0,0);stroke:none;" shape-rendering="geometricPrecision" />
    <ellipse cx="775.9733" cy="351.6521" rx="3" ry="3" style="fill:rgb(204,0,0);stroke:none;" shape-rendering="geometricPrecision" />
    <polyline points="48.551,151.4222 80.1781,280.2744 111.8051,318.2662 143.4322,332.3866 175.0592,339.7871 206.6863,344.4709 301.5674,351.5287 396.4486,354.7891 491.3298,356.6349 586.2109,357.8554 775.9733,359.3632" style="fill:none;stroke:rgb(32,74,135);stroke-width:2;stroke-linejoin:bevel;stroke-dasharray:4,1" />
    <ellipse cx="48.551" cy="151.4222" rx="3" ry="3" style="fill:rgb(32,74,135);stroke:none;" shape-rendering="geometricPrecision" />
    <ellipse cx="80.1781" cy="280.2744" rx="3" ry="3" style="fill:rgb(32,74,135);stroke:none;" shape-rendering="geometricPrecision" />
    <ellipse cx="111.8051" cy="318.2662" rx="3" ry="3" style="fill:rgb(32,74,135);stroke:none;" shape-rendering="geometricPrecision" />
    <ellipse cx="143.4322" cy="332.3866" rx="3" ry="3" style="fill:rgb(32,74,135);stroke:none;" shape-rendering="geometricPrecision" />
    <ellipse cx="175.0592" cy="339.7871" rx="3" ry="3" style="fill:rgb(32,74,135);stroke:none;" shape-rendering="geometricPrecision" />
    <ellipse cx="206.6863" cy="344.4709" rx="3" ry="3" style="fill:rgb(32,74,135);stroke:none;" shape-rendering="geometricPrecision" />
    <ellipse cx="301.5674" cy="351.5287" rx="3" ry="3" style="fill:rgb(32,74,135);stroke:none;" shape-rendering="geometricPrecision" />
    <ellipse cx="396.4486" cy="354.7891" rx="3" ry="3" style="fill:rgb(32,74,135);stroke:none;" shape-rendering="geometricPrecision" />
    <ellipse cx="491.3298" cy="356.6349" rx="3" ry="3" style="fill:rgb(32,74,135);stroke:none;" shape-rendering="geometricPrecision" />
    <ellipse cx="586.2109" cy="357.8554" rx="3" ry="3" style="fill:rgb(32,74,135);stroke:none;" shape-rendering="geometricPrecision" />
    <ellipse cx="775.9733" cy="359.3632" rx="3" ry="3" style="fill:rgb(32,74,135);stroke:none;" shape-rendering="geometricPrecision" />
  </g>
  <defs>
    <clipPath id="clipPath3">
      <rect x="0" y="0" width="800" height="600" />
    </clipPath>
  </defs>
  <g clip-path="url(#clipPath3)">
    <text dominant-baseline="hanging" text-anchor="middle" transform="translate(415.8993,8)" font-family="Segoe UI" font-size="18" font-weight="700" fill="black">Curva de juros de USDBTC</text>
    <rect x="48.551" y="34.106" width="734.6965" height="522.788" style="fill:none;stroke:black;stroke-width:1" shape-rendering="crispEdges" />
  </g>
</svg>