<?xml version="1.0" encoding="utf-8" standalone="no"?>
<!DOCTYPE svg PUBLIC "-//W3C//DTD SVG 1.1//EN" "http://www.w3.org/Graphics/SVG/1.1/DTD/svg11.dtd">
<svg width="800" height="600" version="1.1" xmlns:xlink="http://www.w3.org/1999/xlink" xmlns="http://www.w3.org/2000/svg">
  <defs>
    <clipPath id="clipPath1">
      <rect x="0" y="0" width="800" height="600" />
    </clipPath>
  </defs>
  <g clip-path="url(#clipPath1)">
    <polyline points="64.3645,556.894 64.3645,560.894" style="fill:none;stroke:black;stroke-width:1" shape-rendering="crispEdges" />
    <polyline points="80.1781,556.894 80.1781,560.894" style="fill:none;stroke:black;stroke-width:1" shape-rendering="crispEdges" />
    <polyline points="95.9916,556.894 95.9916,560.894" style="fill:none;stroke:black;stroke-width:1" shape-rendering="crispEdges" />
    <polyline points="127.6186,556.894 127.6186,560.894" style="fill:none;stroke:black;stroke-width:1" shape-rendering="crispEdges" />
    <polyline points="143.4322,556.894 143.4322,560.894" style="fill:none;stroke:black;stroke-width:1" shape-rendering="crispEdges" />
    <polyline points="159.2457,556.894 159.2457,560.894" style="fill:none;stroke:black;stroke-width:1" shape-rendering="crispEdges" />
    <polyline points="190.8727,556.894 190.8727,560.894" style="fill:none;stroke:black;stroke-width:1" shape-rendering="crispEdges" />
    <polyline points="206.6863,556.894 206.6863,560.894" style="fill:none;stroke:black;stroke-width:1" shape-rendering="crispEdges" />
    <polyline points="222.4998,556.894 222.4998,560.894" style="fill:none;stroke:black;stroke-width:1" shape-rendering="crispEdges" />
    <polyline points="254.1269,556.894 254.1269,560.894" style="fill:none;stroke:black;stroke-width:1" shape-rendering="crispEdges" />
    <polyline points="269.9404,556.894 269.9404,560.894" style="fill:none;stroke:black;stroke-width:1" shape-rendering="crispEdges" />
    <polyline points="285.7539,556.894 285.7539,560.894" style="fill:none;stroke:black;stroke-width:1" shape-rendering="crispEdges" />
    <polyline points="317.381,556.894 317.381,560.894" style="fill:none;stroke:black;stroke-width:1" shape-rendering="crispEdges" />
    <polyline points="333.1945,556.894 333.1945,560.894" style="fill:none;stroke:black;stroke-width:1" shape-rendering="crispEdges" />
    <polyline points="349.008,556.894 349.008,560.894" style="fill:none;stroke:black;stroke-width:1" shape-rendering="crispEdges" />
    <polyline points="380.6351,556.894 380.6351,560.894" style="fill:none;stroke:black;stroke-width:1" shape-rendering="crispEdges" />
    <polyline points="396.4486,556.894 396.4486,560.894" style="fill:none;stroke:black;stroke-width:1" shape-rendering="crispEdges" />
    <polyline points="412.2621,556.894 412.2621,560.894" style="fill:none;stroke:black;stroke-width:1" shape-rendering="crispEdges" />
    <polyline points="443.8892,556.894 443.8892,560.894" style="fill:none;stroke:black;stroke-width:1" shape-rendering="crispEdges" />
    <polyline points="459.7027,556.894 459.7027,560.894" style="fill:none;stroke:black;stroke-width:1" shape-rendering="crispEdges" />
    <polyline points="475.5162,556.894 475.5162,560.894" style="fill:none;stroke:black;stroke-width:1" shape-rendering="crispEdges" />
    <polyline points="507.1433,556.894 507.1433,560.894" style="fill:none;stroke:black;stroke-width:1" shape-rendering="crispEdges" />
    <polyline points="522.9568,556.894 522.9568,560.894" style="fill:none;stroke:black;stroke-width:1" shape-rendering="crispEdges" />
    <polyline points="538.7704,556.894 538.7704,560.894" style="fill:none;stroke:black;stroke-width:1" shape-rendering="crispEdges" />
    <polyline points="570.3974,556.894 570.3974,560.894" style="fill:none;stroke:black;stroke-width:1" shape-rendering="crispEdges" />
    <polyline points="586.2109,556.894 586.2109,560.894" style="fill:none;stroke:black;stroke-width:1" shape-rendering="crispEdges" />
    <polyline points="602.0245,556.894 602.0245,560.894" style="fill:none;stroke:black;stroke-width:1" shape-rendering="crispEdges" />
    <polyline points="633.6515,556.894 633.6515,560.894" style="fill:none;stroke:black;stroke-width:1" shape-rendering="crispEdges" />
    <polyline points="649.4651,556.894 649.4651,560.894" style="fill:none;stroke:black;stroke-width:1" shape-rendering="crispEdges" />
    <polyline points="665.2786,556.894 665.2786,560.894" style="fill:none;stroke:black;stroke-width:1" shape-rendering="crispEdges" />
    <polyline points="696.9056,556.894 696.9056,560.894" style="fill:none;stroke:black;stroke-width:1" shape-rendering="crispEdges" />
    <polyline points="712.7192,556.894 712.7192,560.894" style="fill:none;stroke:black;stroke-width:1" shape-rendering="crispEdges" />
    <polyline points="728.5327,556.894 728.5327,560.894" style="fill:none;stroke:black;stroke-width:1" shape-rendering="crispEdges" />
    <polyline points="760.1597,556.894 760.1597,560.894" style="fill:none;stroke:black;stroke-width:1" shape-rendering="crispEdges" />
    <polyline points="775.9733,556.894 775.9733,560.894" style="fill:none;stroke:black;stroke-width:1" shape-rendering="crispEdges" />
    <polyline points="48.551,543.8243 44.551,543.8243" style="fill:none;stroke:black;stroke-width:1" shape-rendering="crispEdges" />
    <polyline points="48.551,530.7546 44.551,530.7546" style="fill:none;stroke:black;stroke-width:1" shape-rendering="crispEdges" />
    <polyline points="48.551,517.6849 44.551,517.6849" style="fill:none;stroke:black;stroke-width:1" shape-rendering="crispEdges" />
    <polyline points="48.551,504.6152 44.551,504.6152" style="fill:none;stroke:black;stroke-width:1" shape-rendering="crispEdges" />
    <polyline points="48.551,478.4758 44.551,478.4758" style="fill:none;stroke:black;stroke-width:1" shape-rendering="crispEdges" />
    <polyline points="48.551,465.4061 44.551,465.4061" style="fill:none;stroke:black;stroke-width:1" shape-rendering="crispEdges" />
    <polyline points="48.551,452.3364 44.551,452.3364" style="fill:none;stroke:black;stroke-width:1" shape-rendering="crispEdges" />
    <polyline points="48.551,439.2667 44.551,439.2667" style="fill:none;stroke:black;stroke-width:1" shape-rendering="crispEdges" />
    <polyline points="48.551,413.1273 44.551,413.1273" style="fill:none;stroke:black;stroke-width:1" shape-rendering="crispEdges" />
    <polyline points="48.551,400.0576 44.551,400.0576" style="fill:none;stroke:black;stroke-width:1" shape-rendering="crispEdges" />
    <polyline points="48.551,386.9879 44.551,386.9879" style="fill:none;stroke:black;stroke-width:1" shape-rendering="crispEdges" />
    <polyline points="48.551,373.9182 44.551,373.9182" style="fill:none;stroke:black;stroke-width:1" shape-rendering="crispEdges" />
    <polyline points="48.551,347.7788 44.551,347.7788" style="fill:none;stroke:black;stroke-width:1" shape-rendering="crispEdges" />
    <polyline points="48.551,334.7091 44.551,334.7091" style="fill:none;stroke:black;stroke-width:1" shape-rendering="crispEdges" />
    <polyline points="48.551,321.6394 44.551,321.6394" style="fill:none;stroke:black;stroke-width:1" shape-rendering="crispEdges" />
    <polyline points="48.551,308.5697 44.551,308.5697" style="fill:none;stroke:black;stroke-width:1" shape-rendering="crispEdges" />
    <polyline points="48.551,282.4303 44.551,282.4303" style="fill:none;stroke:black;stroke-width:1" shape-rendering="crispEdges" />
    <polyline points="48.551,269.3606 44.551,269.3606" style="fill:none;stroke:black;stroke-width:1" shape-rendering="crispEdges" />
    <polyline points="48.551,256.2909 44.551,256.2909" style="fill:none;stroke:black;stroke-width:1" shape-rendering="crispEdges" />
    <polyline points="48.551,243.2212 44.551,243.2212" style="fill:none;stroke:black;stroke-width:1" shape-rendering="crispEdges" />
    <polyline points="48.551,217.0818 44.551,217.0818" style="fill:none;stroke:black;stroke-width:1" shape-rendering="crispEdges" />
    <polyline points="48.551,204.0121 44.551,204.0121" style="fill:none;stroke:black;stroke-width:1" shape-rendering="crispEdges" />
    <polyline points="48.551,190.9424 44.551,190.9424" style="fill:none;stroke:black;stroke-width:1" shape-rendering="crispEdges" />
    <polyline points="48.551,177.8727 44.551,177.8727" style="fill:none;stroke:black;stroke-width:1" shape-rendering="crispEdges" />
    <polyline points="48.551,151.7333 44.551,151.7333" style="fill:none;stroke:black;stroke-width:1" shape-rendering="crispEdges" />
    <polyline points="48.551,138.6636 44.551,138.6636" style="fill:none;stroke:black;stroke-width:1" shape-rendering="crispEdges" />
    <polyline points="48.551,125.5939 44.551,125.5939" style="fill:none;stroke:black;stroke-width:1" shape-rendering="crispEdges" />
    <polyline points="48.551,112.5242 44.551,112.5242" style="fill:none;stroke:black;stroke-width:1" shape-rendering="crispEdges" />
    <polyline points="48.551,86.3848 44.551,86.3848" style="fill:none;stroke:black;stroke-width:1" shape-rendering="crispEdges" />
    <polyline points="48.551,73.3151 44.551,73.3151" style="fill:none;stroke:black;stroke-width:1" shape-rendering="crispEdges" />
    <polyline points="48.551,60.2454 44.551,60.2454" style="fill:none;stroke:black;stroke-width:1" shape-rendering="crispEdges" />
    <polyline points="48.551,47.1757 44.551,47.1757" style="fill:none;stroke:black;stroke-width:1" shape-rendering="crispEdges" />
    <text dominant-baseline="hanging" text-anchor="middle" transform="translate(48.551,567.894)" font-family="Segoe UI" font-size="12" font-weight="400" fill="black">0M</text>
    <text dominant-baseline="hanging" text-anchor="middle" transform="translate(111.8051,567.894)" font-family="Segoe UI" font-size="12" font-weight="400" fill="black">2M</text>
    <text dominant-baseline="hanging" text-anchor="middle" transform="translate(175.0592,567.894)" font-family="Segoe UI" font-size="12" font-weight="400" fill="black">4M</text>
    <text dominant-baseline="hanging" text-anchor="middle" transform="translate(238.3133,567.894)" font-family="Segoe UI" font-size="12" font-weight="400" fill="black">6M</text>
    <text dominant-baseline="hanging" text-anchor="middle" transform="translate(301.5674,567.894)" font-family="Segoe UI" font-size="12" font-weight="400" fill="black">8M</text>
    <text dominant-baseline="hanging" text-anchor="middle" transform="translate(364.8216,567.894)" font-family="Segoe UI" font-size="12" font-weight="400" fill="black">10M</text>
    <text dominant-baseline="hanging" text-anchor="middle" transform="translate(428.0757,567.894)" font-family="Segoe UI" font-size="12" font-weight="400" fill="black">12M</text>
    <text dominant-baseline="hanging" text-anchor="middle" transform="translate(491.3298,567.894)" font-family="Segoe UI" font-size="12" font-weight="400" fill="black">14M</text>
    <text dominant-baseline="hanging" text-anchor="middle" transform="translate(554.5839,567.894)" font-family="Segoe UI" font-size="12" font-weight="400" fill="black">16M</text>
    <text dominant-baseline="hanging" text-anchor="middle" transform="translate(617.838,567.894)" font-family="Segoe UI" font-size="12" font-weight="400" fill="black">18M</text>
    <text dominant-baseline="hanging" text-anchor="middle" transform="translate(681.0921,567.894)" font-family="Segoe UI" font-size="12" font-weight="400" fill="black">20M</text>
    <text dominant-baseline="hanging" text-anchor="middle" transform="translate(744.3462,567.894)" font-family="Segoe UI" font-size="12" font-weight="400" fill="black">22M</text>
    <polyline points="48.551,34.106 48.551,556.894" style="fill:none;stroke:rgb(0,0,0);stroke-width:1;stroke-opacity:0.25098039215686274" shape-rendering="crispEdges" />
    <polyline points="111.8051,34.106 111.8051,556.894" style="fill:none;stroke:rgb(0,0,0);stroke-width:1;stroke-opacity:0.25098039215686274" shape-rendering="crispEdges" />
    <polyline points="175.0592,34.106 175.0592,556.894" style="fill:none;stroke:rgb(0,0,0);stroke-width:1;stroke-opacity:0.25098039215686274" shape-rendering="crispEdges" />
    <polyline points="238.3133,34.106 238.3133,556.894" style="fill:none;stroke:rgb(0,0,0);stroke-width:1;stroke-opacity:0.25098039215686274" shape-rendering="crispEdges" />
    <polyline points="301.5674,34.106 301.5674,556.894" style="fill:none;stroke:rgb(0,0,0);stroke-width:1;stroke-opacity:0.25098039215686274" shape-rendering="crispEdges" />
    <polyline points="364.8216,34.106 364.8216,556.894" style="fill:none;stroke:rgb(0,0,0);stroke-width:1;stroke-opacity:0.25098039215686274" shape-rendering="crispEdges" />
    <polyline points="428.0757,34.106 428.0757,556.894" style="fill:none;stroke:rgb(0,0,0);stroke-width:1;stroke-opacity:0.25098039215686274" shape-rendering="crispEdges" />
    <polyline points="491.3298,34.106 491.3298,556.894" style="fill:none;stroke:rgb(0,0,0);stroke-width:1;stroke-opacity:0.25098039215686274" shape-rendering="crispEdges" />
    <polyline points="554.5839,34.106 554.5839,556.894" style="fill:none;stroke:rgb(0,0,0);stroke-width:1;stroke-opacity:0.25098039215686274" shape-rendering="crispEdges" />
    <polyline points="617.838,34.106 617.838,556.894" style="fill:none;stroke:rgb(0,0,0);stroke-width:1;stroke-opacity:0.25098039215686274" shape-rendering="crispEdges" />
    <polyline points="681.0921,34.106 681.0921,556.894" style="fill:none;stroke:rgb(0,0,0);stroke-width:1;stroke-opacity:0.25098039215686274" shape-rendering="crispEdges" />
    <polyline points="744.3462,34.106 744.3462,556.894" style="fill:none;stroke:rgb(0,0,0);stroke-width:1;stroke-opacity:0.25098039215686274" shape-rendering="crispEdges" />
    <polyline points="48.551,556.894 48.551,563.894" style="fill:none;stroke:black;stroke-width:1" shape-rendering="crispEdges" />
    <polyline points="111.8051,556.894 111.8051,563.894" style="fill:none;stroke:black;stroke-width:1" shape-rendering="crispEdges" />
    <polyline points="175.0592,556.894 175.0592,563.894" style="fill:none;stroke:black;stroke-width:1" shape-rendering="crispEdges" />
    <polyline points="238.3133,556.894 238.3133,563.894" style="fill:none;stroke:black;stroke-width:1" shape-rendering="crispEdges" />
    <polyline points="301.5674,556.894 301.5674,563.894" style="fill:none;stroke:black;stroke-width:1" shape-rendering="crispEdges" />
    <polyline points="364.8216,556.894 364.8216,563.894" style="fill:none;stroke:black;stroke-width:1" shape-rendering="crispEdges" />
    <polyline points="428.0757,556.894 428.0757,563.894" style="fill:none;stroke:black;stroke-width:1" shape-rendering="crispEdges" />
    <polyline points="491.3298,556.894 491.3298,563.894" style="fill:none;stroke:black;stroke-width:1" shape-rendering="crispEdges" />
    <polyline points="554.5839,556.894 554.5839,563.894" style="fill:none;stroke:black;stroke-width:1" shape-rendering="crispEdges" />
    <polyline points="617.838,556.894 617.838,563.894" style="fill:none;stroke:black;stroke-width:1" shape-rendering="crispEdges" />
    <polyline points="681.0921,556.894 681.0921,563.894" style="fill:none;stroke:black;stroke-width:1" shape-rendering="crispEdges" />
    <polyline points="744.3462,556.894 744.3462,563.894" style="fill:none;stroke:black;stroke-width:1" shape-rendering="crispEdges" />
    <text dominant-baseline="baseline" text-anchor="middle" transform="translate(415.8993,588)" font-family="Segoe UI" font-size="12" font-weight="400" fill="black">Meses</text>
    <text dominant-baseline="middle" text-anchor="end" transform="translate(37.551,556.894)" font-family="Segoe UI" font-size="12" font-weight="400" fill="black">-0.4</text>
    <text dominant-baseline="middle" text-anchor="end" transform="translate(37.551,491.5455)" font-family="Segoe UI" font-size="12" font-weight="400" fill="black">-0.3</text>
    <text dominant-baseline="middle" text-anchor="end" transform="translate(37.551,426.197)" font-family="Segoe UI" font-size="12" font-weight="400" fill="black">-0.2</text>
    <text dominant-baseline="middle" text-anchor="end" transform="translate(37.551,360.8485)" font-family="Segoe UI" font-size="12" font-weight="400" fill="black">-0.1</text>
    <text dominant-baseline="middle" text-anchor="end" transform="translate(37.551,295.5)" font-family="Segoe UI" font-size="12" font-weight="400" fill="black">0</text>
    <text dominant-baseline="middle" text-anchor="end" transform="translate(37.551,230.1515)" font-family="Segoe UI" font-size="12" font-weight="400" fill="black">0.1</text>
    <text dominant-baseline="middle" text-anchor="end" transform="translate(37.551,164.803)" font-family="Segoe UI" font-size="12" font-weight="400" fill="black">0.2</text>
    <text dominant-baseline="middle" text-anchor="end" transform="translate(37.551,99.4545)" font-family="Segoe UI" font-size="12" font-weight="400" fill="black">0.3</text>
    <text dominant-baseline="middle" text-anchor="end" transform="translate(37.551,34.106)" font-family="Segoe UI" font-size="12" font-weight="400" fill="black">0.4</text>
    <polyline points="48.551,556.894 783.2475,556.894" style="fill:none;stroke:rgb(0,0,0);stroke-width:1;stroke-opacity:0.25098039215686274" shape-rendering="crispEdges" />
    <polyline points="48.551,491.5455 783.2475,491.5455" style="fill:none;stroke:rgb(0,0,0);stroke-width:1;stroke-opacity:0.25098039215686274" shape-rendering="crispEdges" />
    <polyline points="48.551,426.197 783.2475,426.197" style="fill:none;stroke:rgb(0,0,0);stroke-width:1;stroke-opacity:0.25098039215686274" shape-rendering="crispEdges" />
    <polyline points="48.551,360.8485 783.2475,360.8485" style="fill:none;stroke:rgb(0,0,0);stroke-width:1;stroke-opacity:0.25098039215686274" shape-rendering="crispEdges" />
    <polyline points="48.551,295.5 783.2475,295.5" style="fill:none;stroke:rgb(0,0,0);stroke-width:1;stroke-opacity:0.25098039215686274" shape-rendering="crispEdges" />
    <polyline points="48.551,230.1515 783.2475,230.1515" style="fill:none;stroke:rgb(0,0,0);stroke-width:1;stroke-opacity:0.25098039215686274" shape-rendering="crispEdges" />
    <polyline points="48.551,164.803 783.2475,164.803" style="fill:none;stroke:rgb(0,0,0);stroke-width:1;stroke-opacity:0.25098039215686274" shape-rendering="crispEdges" />
    <polyline points="48.551,99.4545 783.2475,99.4545" style="fill:none;stroke:rgb(0,0,0);stroke-width:1;stroke-opacity:0.25098039215686274" shape-rendering="crispEdges" />
    <polyline points="48.551,34.106 783.2475,34.106" style="fill:none;stroke:rgb(0,0,0);stroke-width:1;stroke-opacity:0.25098039215686274" shape-rendering="crispEdges" />
    <polyline points="48.551,556.894 41.551,556.894" style="fill:none;stroke:black;stroke-width:1" shape-rendering="crispEdges" />
    <polyline points="48.551,491.5455 41.551,491.5455" style="fill:none;stroke:black;stroke-width:1" shape-rendering="crispEdges" />
    <polyline points="48.551,426.197 41.551,426.197" style="fill:none;stroke:black;stroke-width:1" shape-rendering="crispEdges" />
    <polyline points="48.551,360.8485 41.551,360.8485" style="fill:none;stroke:black;stroke-width:1" shape-rendering="crispEdges" />
    <polyline points="48.551,295.5 41.551,295.5" style="fill:none;stroke:black;stroke-width:1" shape-rendering="crispEdges" />
    <polyline points="48.551,230.1515 41.551,230.1515" style="fill:none;stroke:black;stroke-width:1" shape-rendering="crispEdges" />
    <polyline points="48.551,164.803 41.551,164.803" style="fill:none;stroke:black;stroke-width:1" shape-rendering="crispEdges" />
    <polyline points="48.551,99.4545 41.551,99.4545" style="fill:none;stroke:black;stroke-width:1" shape-rendering="crispEdges" />
    <polyline points="48.551,34.106 41.551,34.106" style="fill:none;stroke:black;stroke-width:1" shape-rendering="crispEdges" />
    <text dominant-baseline="hanging" text-anchor="middle" transform="translate(12,295.5) rotate(-90)" font-family="Segoe UI" font-size="12" font-weight="400" fill="black">Taxa</text>
  </g>
  <defs>
    <clipPath id="clipPath2">
      <rect x="48.551" y="34.106" width="734.6965" height="522.788" />
    </clipPath>
  </defs>
  <g clip-path="url(#clipPath2)">
    <polyline points="48.551,451.608 80.1781,431.1921 111.8051,417.7526 143.4322,396.8502 175.0592,385.3388 206.6863,364.6572 301.5674,341.0138 396.4486,353.1995 491.3298,365.8478 586.2109,295.5 775.9733,295.5" style="fill:none;stroke:rgb(78,154,6);stroke-width:2;stroke-linejoin:bevel" />
    <ellipse cx="48.551" cy="451.608" rx="3" ry="3" style="fill:rgb(78,154,6);stroke:none;" shape-rendering="geometricPrecision" />
    <ellipse cx="80.1781" cy="431.1921" rx="3" ry="3" style="fill:rgb(78,154,6);stroke:none;" shape-rendering="geometricPrecision" />
    <ellipse cx="111.8051" cy="417.7526" rx="3" ry="3" style="fill:rgb(78,154,6);stroke:none;" shape-rendering="geometricPrecision" />
    <ellipse cx="143.4322" cy="396.8502" rx="3" ry="3" style="fill:rgb(78,154,6);stroke:none;" shape-rendering="geometricPrecision" />
    <ellipse cx="175.0592" cy="385.3388" rx="3" ry="3" style="fill:rgb(78,154,6);stroke:none;" shape-rendering="geometricPrecision" />
    <ellipse cx="206.6863" cy="364.6572" rx="3" ry="3" style="fill:rgb(78,154,6);stroke:none;" shape-rendering="geometricPrecision" />
    <ellipse cx="301.5674" cy="341.0138" rx="3" ry="3" style="fill:rgb(78,154,6);stroke:none;" shape-rendering="geometricPrecision" />
    <ellipse cx="396.4486" cy="353.1995" rx="3" ry="3" style="fill:rgb(78,154,6);stroke:none;" shape-rendering="geometricPrecision" />
    <ellipse cx="491.3298" cy="365.8478" rx="3" ry="3" style="fill:rgb(78,154,6);stroke:none;" shape-rendering="geometricPrecision" />
    <ellipse cx="586.2109" cy="295.5" rx="3" ry="3" style="fill:rgb(78,154,6);stroke:none;" shape-rendering="geometricPrecision" />
    <ellipse cx="775.9733" cy="295.5" rx="3" ry="3" style="fill:rgb(78,154,6);stroke:none;" shape-rendering="geometricPrecision" />
    <polyline points="48.551,435.9623 80.1781,419.188 111.8051,409.865 143.4322,391.6752 175.0592,381.3429 206.6863,395.2168 301.5674,339.5579 396.4486,352.3748 491.3298,365.0362 586.2109,295.5 775.9733,295.5" style="fill:none;stroke:rgb(200,141,0);stroke-width:2;stroke-linejoin:bevel" />
    <ellipse cx="48.551" cy="435.9623" rx="3" ry="3" style="fill:rgb(200,141,0);stroke:none;" shape-rendering="geometricPrecision" />
    <ellipse cx="80.1781" cy="419.188" rx="3" ry="3" style="fill:rgb(200,141,0);stroke:none;" shape-rendering="geometricPrecision" />
    <ellipse cx="111.8051" cy="409.865" rx="3" ry="3" style="fill:rgb(200,141,0);stroke:none;" shape-rendering="geometricPrecision" />
    <ellipse cx="143.4322" cy="391.6752" rx="3" ry="3" style="fill:rgb(200,141,0);stroke:none;" shape-rendering="geometricPrecision" />
    <ellipse cx="175.0592" cy="381.3429" rx="3" ry="3" style="fill:rgb(200,141,0);stroke:none;" shape-rendering="geometricPrecision" />
    <ellipse cx="206.6863" cy="395.2168" rx="3" ry="3" style="fill:rgb(200,141,0);stroke:none;" shape-rendering="geometricPrecision" />
    <ellipse cx="301.5674" cy="339.5579" rx="3" ry="3" style="fill:rgb(200,141,0);stroke:none;" shape-rendering="geometricPrecision" />
    <ellipse cx="396.4486" cy="352.3748" rx="3" ry="3" style="fill:rgb(200,141,0);stroke:none;" shape-rendering="geometricPrecision" />
    <ellipse cx="491.3298" cy="365.0362" rx="3" ry="3" style="fill:rgb(200,141,0);stroke:none;" shape-rendering="geometricPrecision" />
    <ellipse cx="586.2109" cy="295.5" rx="3" ry="3" style="fill:rgb(200,141,0);stroke:none;" shape-rendering="geometricPrecision" />
    <ellipse cx="775.9733" cy="295.5" rx="3" ry="3" style="fill:rgb(200,141,0);stroke:none;" shape-rendering="geometricPrecision" />
    <polyline points="48.551,431.3172 80.1781,413.3311 111.8051,405.5173 143.4322,388.6464 175.0592,378.8375 206.6863,392.2111 301.5674,338.4551 396.4486,351.6847 491.3298,364.3787 586.2109,295.5 775.9733,295.5" style="fill:none;stroke:rgb(204,0,0);stroke-width:2;stroke-linejoin:bevel" />
    <ellipse cx="48.551" cy="431.3172" rx="3" ry="3" style="fill:rgb(204,0,0);stroke:none;" shape-rendering="geometricPrecision" />
    <ellipse cx="80.1781" cy="413.3311" rx="3" ry="3" style="fill:rgb(204,0,0);stroke:none;" shape-rendering="geometricPrecision" />
    <ellipse cx="111.8051" cy="405.5173" rx="3" ry="3" style="fill:rgb(204,0,0);stroke:none;" shape-rendering="geometricPrecision" />
    <ellipse cx="143.4322" cy="388.6464" rx="3" ry="3" style="fill:rgb(204,0,0);stroke:none;" shape-rendering="geometricPrecision" />
    <ellipse cx="175.0592" cy="378.8375" rx="3" ry="3" style="fill:rgb(204,0,0);stroke:none;" shape-rendering="geometricPrecision" />
    <ellipse cx="206.6863" cy="392.2111" rx="3" ry="3" style="fill:rgb(204,0,0);stroke:none;" shape-rendering="geometricPrecision" />
    <ellipse cx="301.5674" cy="338.4551" rx="3" ry="3" style="fill:rgb(204,0,0);stroke:none;" shape-rendering="geometricPrecision" />
    <ellipse cx="396.4486" cy="351.6847" rx="3" ry="3" style="fill:rgb(204,0,0);stroke:none;" shape-rendering="geometricPrecision" />
    <ellipse cx="491.3298" cy="364.3787" rx="3" ry="3" style="fill:rgb(204,0,0);stroke:none;" shape-rendering="geometricPrecision" />
    <ellipse cx="586.2109" cy="295.5" rx="3" ry="3" style="fill:rgb(204,0,0);stroke:none;" shape-rendering="geometricPrecision" />
    <ellipse cx="775.9733" cy="295.5" rx="3" ry="3" style="fill:rgb(204,0,0);stroke:none;" shape-rendering="geometricPrecision" />
    <polyline points="48.551,275.9755 80.1781,346.1638 111.8051,358.4821 143.4322,358.0793 175.0592,357.5377 206.6863,371.9374 301.5674,334.0277 396.4486,347.3747 491.3298,360.1273 586.2109,295.5 775.9733,295.5" style="fill:none;stroke:rgb(32,74,135);stroke-width:2;stroke-linejoin:bevel" />
    <ellipse cx="48.551" cy="275.9755" rx="3" ry="3" style="fill:rgb(32,74,135);stroke:none;" shape-rendering="geometricPrecision" />
    <ellipse cx="80.1781" cy="346.1638" rx="3" ry="3" style="fill:rgb(32,74,135);stroke:none;" shape-rendering="geometricPrecision" />
    <ellipse cx="111.8051" cy="358.4821" rx="3" ry="3" style="fill:rgb(32,74,135);stroke:none;" shape-rendering="geometricPrecision" />
    <ellipse cx="143.4322" cy="358.0793" rx="3" ry="3" style="fill:rgb(32,74,135);stroke:none;" shape-rendering="geometricPrecision" />
    <ellipse cx="175.0592" cy="357.5377" rx="3" ry="3" style="fill:rgb(32,74,135);stroke:none;" shape-rendering="geometricPrecision" />
    <ellipse cx="206.6863" cy="371.9374" rx="3" ry="3" style="fill:rgb(32,74,135);stroke:none;" shape-rendering="geometricPrecision" />
    <ellipse cx="301.5674" cy="334.0277" rx="3" ry="3" style="fill:rgb(32,74,135);stroke:none;" shape-rendering="geometricPrecision" />
    <ellipse cx="396.4486" cy="347.3747" rx="3" ry="3" style="fill:rgb(32,74,135);stroke:none;" shape-rendering="geometricPrecision" />
    <ellipse cx="491.3298" cy="360.1273" rx="3" ry="3" style="fill:rgb(32,74,135);stroke:none;" shape-rendering="geometricPrecision" />
    <ellipse cx="586.2109" cy="295.5" rx="3" ry="3" style="fill:rgb(32,74,135);stroke:none;" shape-rendering="geometricPrecision" />
    <ellipse cx="775.9733" cy="295.5" rx="3" ry="3" style="fill:rgb(32,74,135);stroke:none;" shape-rendering="geometricPrecision" />
    <polyline points="48.551,171.3813 80.1781,293.5385 111.8051,326.2582 143.4322,336.8185 175.0592,342.7345 206.6863,357.7424 301.5674,363.9951 396.4486,343.1863 491.3298,356.0541 586.2109,295.5 775.9733,295.5" style="fill:none;stroke:rgb(255,0,0);stroke-width:2;stroke-linejoin:bevel" />
    <ellipse cx="48.551" cy="171.3813" rx="3" ry="3" style="fill:rgb(255,0,0);stroke:none;" shape-rendering="geometricPrecision" />
    <ellipse cx="80.1781" cy="293.5385" rx="3" ry="3" style="fill:rgb(255,0,0);stroke:none;" shape-rendering="geometricPrecision" />
    <ellipse cx="111.8051" cy="326.2582" rx="3" ry="3" style="fill:rgb(255,0,0);stroke:none;" shape-rendering="geometricPrecision" />
    <ellipse cx="143.4322" cy="336.8185" rx="3" ry="3" style="fill:rgb(255,0,0);stroke:none;" shape-rendering="geometricPrecision" />
    <ellipse cx="175.0592" cy="342.7345" rx="3" ry="3" style="fill:rgb(255,0,0);stroke:none;" shape-rendering="geometricPrecision" />
    <ellipse cx="206.6863" cy="357.7424" rx="3" ry="3" style="fill:rgb(255,0,0);stroke:none;" shape-rendering="geometricPrecision" />
    <ellipse cx="301.5674" cy="363.9951" rx="3" ry="3" style="fill:rgb(255,0,0);stroke:none;" shape-rendering="geometricPrecision" />
    <ellipse cx="396.4486" cy="343.1863" rx="3" ry="3" style="fill:rgb(255,0,0);stroke:none;" shape-rendering="geometricPrecision" />
    <ellipse cx="491.3298" cy="356.0541" rx="3" ry="3" style="fill:rgb(255,0,0);stroke:none;" shape-rendering="geometricPrecision" />
    <ellipse cx="586.2109" cy="295.5" rx="3" ry="3" style="fill:rgb(255,0,0);stroke:none;" shape-rendering="geometricPrecision" />
    <ellipse cx="775.9733" cy="295.5" rx="3" ry="3" style="fill:rgb(255,0,0);stroke:none;" shape-rendering="geometricPrecision" />
    <polyline points="48.551,236.9391 80.1781,328.2593 111.8051,345.9692 143.4322,348.8243 175.0592,351.7298 206.6863,366.9073 301.5674,369.4407 396.4486,345.8521 491.3298,358.6653 586.2109,295.5 775.9733,295.5" style="fill:none;stroke:rgb(255,165,0);stroke-width:2;stroke-linejoin:bevel" />
    <ellipse cx="48.551" cy="236.9391" rx="3" ry="3" style="fill:rgb(255,165,0);stroke:none;" shape-rendering="geometricPrecision" />
    <ellipse cx="80.1781" cy="328.2593" rx="3" ry="3" style="fill:rgb(255,165,0);stroke:none;" shape-rendering="geometricPrecision" />
    <ellipse cx="111.8051" cy="345.9692" rx="3" ry="3" style="fill:rgb(255,165,0);stroke:none;" shape-rendering="geometricPrecision" />
    <ellipse cx="143.4322" cy="348.8243" rx="3" ry="3" style="fill:rgb(255,165,0);stroke:none;" shape-rendering="geometricPrecision" />
    <ellipse cx="175.0592" cy="351.7298" rx="3" ry="3" style="fill:rgb(255,165,0);stroke:none;" shape-rendering="geometricPrecision" />
    <ellipse cx="206.6863" cy="366.9073" rx="3" ry="3" style="fill:rgb(255,165,0);stroke:none;" shape-rendering="geometricPrecision" />
    <ellipse cx="301.5674" cy="369.4407" rx="3" ry="3" style="fill:rgb(255,165,0);stroke:none;" shape-rendering="geometricPrecision" />
    <ellipse cx="396.4486" cy="345.8521" rx="3" ry="3" style="fill:rgb(255,165,0);stroke:none;" shape-rendering="geometricPrecision" />
    <ellipse cx="491.3298" cy="358.6653" rx="3" ry="3" style="fill:rgb(255,165,0);stroke:none;" shape-rendering="geometricPrecision" />
    <ellipse cx="586.2109" cy="295.5" rx="3" ry="3" style="fill:rgb(255,165,0);stroke:none;" shape-rendering="geometricPrecision" />
    <ellipse cx="775.9733" cy="295.5" rx="3" ry="3" style="fill:rgb(255,165,0);stroke:none;" shape-rendering="geometricPrecision" />
    <polyline points="48.551,386.2528 80.1781,398.6378 111.8051,381.4928 143.4322,371.9595 175.0592,368.1322 206.6863,384.0259 301.5674,378.0356 396.4486,350.0401 491.3298,362.777 586.2109,295.5 775.9733,295.5" style="fill:none;stroke:rgb(255,255,0);stroke-width:2;stroke-linejoin:bevel" />
    <ellipse cx="48.551" cy="386.2528" rx="3" ry="3" style="fill:rgb(255,255,0);stroke:none;" shape-rendering="geometricPrecision" />
    <ellipse cx="80.1781" cy="398.6378" rx="3" ry="3" style="fill:rgb(255,255,0);stroke:none;" shape-rendering="geometricPrecision" />
    <ellipse cx="111.8051" cy="381.4928" rx="3" ry="3" style="fill:rgb(255,255,0);stroke:none;" shape-rendering="geometricPrecision" />
    <ellipse cx="143.4322" cy="371.9595" rx="3" ry="3" style="fill:rgb(255,255,0);stroke:none;" shape-rendering="geometricPrecision" />
    <ellipse cx="175.0592" cy="368.1322" rx="3" ry="3" style="fill:rgb(255,255,0);stroke:none;" shape-rendering="geometricPrecision" />
    <ellipse cx="206.6863" cy="384.0259" rx="3" ry="3" style="fill:rgb(255,255,0);stroke:none;" shape-rendering="geometricPrecision" />
    <ellipse cx="301.5674" cy="378.0356" rx="3" ry="3" style="fill:rgb(255,255,0);stroke:none;" shape-rendering="geometricPrecision" />
    <ellipse cx="396.4486" cy="350.0401" rx="3" ry="3" style="fill:rgb(255,255,0);stroke:none;" shape-rendering="geometricPrecision" />
    <ellipse cx="491.3298" cy="362.777" rx="3" ry="3" style="fill:rgb(255,255,0);stroke:none;" shape-rendering="geometricPrecision" />
    <ellipse cx="586.2109" cy="295.5" rx="3" ry="3" style="fill:rgb(255,255,0);stroke:none;" shape-rendering="geometricPrecision" />
    <ellipse cx="775.9733" cy="295.5" rx="3" ry="3" style="fill:rgb(255,255,0);stroke:none;" shape-rendering="geometricPrecision" />
    <polyline points="48.551,176.3441 80.1781,305.6373 111.8051,329.3661 143.4322,337.7682 175.0592,343.4259 206.6863,358.4088 301.5674,365.2497 396.4486,343.8005 491.3298,356.6842 586.2109,295.5 775.9733,295.5" style="fill:none;stroke:rgb(0,128,0);stroke-width:2;stroke-linejoin:bevel" />
    <ellipse cx="48.551" cy="176.3441" rx="3" ry="3" style="fill:rgb(0,128,0);stroke:none;" shape-rendering="geometricPrecision" />
    <ellipse cx="80.1781" cy="305.6373" rx="3" ry="3" style="fill:rgb(0,128,0);stroke:none;" shape-rendering="geometricPrecision" />
    <ellipse cx="111.8051" cy="329.3661" rx="3" ry="3" style="fill:rgb(0,128,0);stroke:none;" shape-rendering="geometricPrecision" />
    <ellipse cx="143.4322" cy="337.7682" rx="3" ry="3" style="fill:rgb(0,128,0);stroke:none;" shape-rendering="geometricPrecision" />
    <ellipse cx="175.0592" cy="343.4259" rx="3" ry="3" style="fill:rgb(0,128,0);stroke:none;" shape-rendering="geometricPrecision" />
    <ellipse cx="206.6863" cy="358.4088" rx="3" ry="3" style="fill:rgb(0,128,0);stroke:none;" shape-rendering="geometricPrecision" />
    <ellipse cx="301.5674" cy="365.2497" rx="3" ry="3" style="fill:rgb(0,128,0);stroke:none;" shape-rendering="geometricPrecision" />
    <ellipse cx="396.4486" cy="343.8005" rx="3" ry="3" style="fill:rgb(0,128,0);stroke:none;" shape-rendering="geometricPrecision" />
    <ellipse cx="491.3298" cy="356.6842" rx="3" ry="3" style="fill:rgb(0,128,0);stroke:none;" shape-rendering="geometricPrecision" />
    <ellipse cx="586.2109" cy="295.5" rx="3" ry="3" style="fill:rgb(0,128,0);stroke:none;" shape-rendering="geometricPrecision" />
    <ellipse cx="775.9733" cy="295.5" rx="3" ry="3" style="fill:rgb(0,128,0);stroke:none;" shape-rendering="geometricPrecision" />
    <polyline points="48.551,370.5457 80.1781,383.4657 111.8051,382.0158 143.4322,380.5836 175.0592,361.9332 206.6863,376.3239 301.5674,377.1898 396.4486,349.6448 491.3298,362.4068 586.2109,374.6105 775.9733,295.5" style="fill:none;stroke:rgb(0,0,255);stroke-width:2;stroke-linejoin:bevel" />
    <ellipse cx="48.551" cy="370.5457" rx="3" ry="3" style="fill:rgb(0,0,255);stroke:none;" shape-rendering="geometricPrecision" />
    <ellipse cx="80.1781" cy="383.4657" rx="3" ry="3" style="fill:rgb(0,0,255);stroke:none;" shape-rendering="geometricPrecision" />
    <ellipse cx="111.8051" cy="382.0158" rx="3" ry="3" style="fill:rgb(0,0,255);stroke:none;" shape-rendering="geometricPrecision" />
    <ellipse cx="143.4322" cy="380.5836" rx="3" ry="3" style="fill:rgb(0,0,255);stroke:none;" shape-rendering="geometricPrecision" />
    <ellipse cx="175.0592" cy="361.9332" rx="3" ry="3" style="fill:rgb(0,0,255);stroke:none;" shape-rendering="geometricPrecision" />
    <ellipse cx="206.6863" cy="376.3239" rx="3" ry="3" style="fill:rgb(0,0,255);stroke:none;" shape-rendering="geometricPrecision" />
    <ellipse cx="301.5674" cy="377.1898" rx="3" ry="3" style="fill:rgb(0,0,255);stroke:none;" shape-rendering="geometricPrecision" />
    <ellipse cx="396.4486" cy="349.6448" rx="3" ry="3" style="fill:rgb(0,0,255);stroke:none;" shape-rendering="geometricPrecision" />
    <ellipse cx="491.3298" cy="362.4068" rx="3" ry="3" style="fill:rgb(0,0,255);stroke:none;" shape-rendering="geometricPrecision" />
    <ellipse cx="586.2109" cy="374.6105" rx="3" ry="3" style="fill:rgb(0,0,255);stroke:none;" shape-rendering="geometricPrecision" />
    <ellipse cx="775.9733" cy="295.5" rx="3" ry="3" style="fill:rgb(0,0,255);stroke:none;" shape-rendering="geometricPrecision" />
    <polyline points="48.551,199.7032 80.1781,329.3339 111.8051,346.8271 143.4322,355.3563 175.0592,346.1505 206.6863,360.2986 301.5674,365.8839 396.4486,344.13 491.3298,356.9964 586.2109,369.3268 775.9733,295.5" style="fill:none;stroke:rgb(75,0,130);stroke-width:2;stroke-linejoin:bevel" />
    <ellipse cx="48.551" cy="199.7032" rx="3" ry="3" style="fill:rgb(75,0,130);stroke:none;" shape-rendering="geometricPrecision" />
    <ellipse cx="80.1781" cy="329.3339" rx="3" ry="3" style="fill:rgb(75,0,130);stroke:none;" shape-rendering="geometricPrecision" />
    <ellipse cx="111.8051" cy="346.8271" rx="3" ry="3" style="fill:rgb(75,0,130);stroke:none;" shape-rendering="geometricPrecision" />
    <ellipse cx="143.4322" cy="355.3563" rx="3" ry="3" style="fill:rgb(75,0,130);stroke:none;" shape-rendering="geometricPrecision" />
    <ellipse cx="175.0592" cy="346.1505" rx="3" ry="3" style="fill:rgb(75,0,130);stroke:none;" shape-rendering="geometricPrecision" />
    <ellipse cx="206.6863" cy="360.2986" rx="3" ry="3" style="fill:rgb(75,0,130);stroke:none;" shape-rendering="geometricPrecision" />
    <ellipse cx="301.5674" cy="365.8839" rx="3" ry="3" style="fill:rgb(75,0,130);stroke:none;" shape-rendering="geometricPrecision" />
    <ellipse cx="396.4486" cy="344.13" rx="3" ry="3" style="fill:rgb(75,0,130);stroke:none;" shape-rendering="geometricPrecision" />
    <ellipse cx="491.3298" cy="356.9964" rx="3" ry="3" style="fill:rgb(75,0,130);stroke:none;" shape-rendering="geometricPrecision" />
    <ellipse cx="586.2109" cy="369.3268" rx="3" ry="3" style="fill:rgb(75,0,130);stroke:none;" shape-rendering="geometricPrecision" />
    <ellipse cx="775.9733" cy="295.5" rx="3" ry="3" style="fill:rgb(75,0,130);stroke:none;" shape-rendering="geometricPrecision" />
    <polyline points="48.551,515.824 80.1781,436.6188 111.8051,409.6515 143.4322,399.6076 175.0592,372.4963 206.6863,389.1267 301.5674,383.2883 396.4486,352.6655 491.3298,365.3452 586.2109,377.4969 775.9733,295.5" style="fill:none;stroke:rgb(238,130,238);stroke-width:2;stroke-linejoin:bevel" />
    <ellipse cx="48.551" cy="515.824" rx="3" ry="3" style="fill:rgb(238,130,238);stroke:none;" shape-rendering="geometricPrecision" />
    <ellipse cx="80.1781" cy="436.6188" rx="3" ry="3" style="fill:rgb(238,130,238);stroke:none;" shape-rendering="geometricPrecision" />
    <ellipse cx="111.8051" cy="409.6515" rx="3" ry="3" style="fill:rgb(238,130,238);stroke:none;" shape-rendering="geometricPrecision" />
    <ellipse cx="143.4322" cy="399.6076" rx="3" ry="3" style="fill:rgb(238,130,238);stroke:none;" shape-rendering="geometricPrecision" />
    <ellipse cx="175.0592" cy="372.4963" rx="3" ry="3" style="fill:rgb(238,130,238);stroke:none;" shape-rendering="geometricPrecision" />
    <ellipse cx="206.6863" cy="389.1267" rx="3" ry="3" style="fill:rgb(238,130,238);stroke:none;" shape-rendering="geometricPrecision" />
    <ellipse cx="301.5674" cy="383.2883" rx="3" ry="3" style="fill:rgb(238,130,238);stroke:none;" shape-rendering="geometricPrecision" />
    <ellipse cx="396.4486" cy="352.6655" rx="3" ry="3" style="fill:rgb(238,130,238);stroke:none;" shape-rendering="geometricPrecision" />
    <ellipse cx="491.3298" cy="365.3452" rx="3" ry="3" style="fill:rgb(238,130,238);stroke:none;" shape-rendering="geometricPrecision" />
    <ellipse cx="586.2109" cy="377.4969" rx="3" ry="3" style="fill:rgb(238,130,238);stroke:none;" shape-rendering="geometricPrecision" />
    <ellipse cx="775.9733" cy="295.5" rx="3" ry="3" style="fill:rgb(238,130,238);stroke:none;" shape-rendering="geometricPrecision" />
    <polyline points="48.551,498.5869 80.1781,438.8508 111.8051,406.9209 143.4322,397.7015 175.0592,395.3298 206.6863,383.2182 301.5674,383.2456 396.4486,350.9354 491.3298,363.6527 586.2109,375.8646 775.9733,295.5" style="fill:none;stroke:rgb(78,154,6);stroke-width:2;stroke-linejoin:bevel;stroke-dasharray:4,1" />
    <ellipse cx="48.551" cy="498.5869" rx="3" ry="3" style="fill:rgb(78,154,6);stroke:none;" shape-rendering="geometricPrecision" />
    <ellipse cx="80.1781" cy="438.8508" rx="3" ry="3" style="fill:rgb(78,154,6);stroke:none;" shape-rendering="geometricPrecision" />
    <ellipse cx="111.8051" cy="406.9209" rx="3" ry="3" style="fill:rgb(78,154,6);stroke:none;" shape-rendering="geometricPrecision" />
    <ellipse cx="143.4322" cy="397.7015" rx="3" ry="3" style="fill:rgb(78,154,6);stroke:none;" shape-rendering="geometricPrecision" />
    <ellipse cx="175.0592" cy="395.3298" rx="3" ry="3" style="fill:rgb(78,154,6);stroke:none;" shape-rendering="geometricPrecision" />
    <ellipse cx="206.6863" cy="383.2182" rx="3" ry="3" style="fill:rgb(78,154,6);stroke:none;" shape-rendering="geometricPrecision" />
    <ellipse cx="301.5674" cy="383.2456" rx="3" ry="3" style="fill:rgb(78,154,6);stroke:none;" shape-rendering="geometricPrecision" />
    <ellipse cx="396.4486" cy="350.9354" rx="3" ry="3" style="fill:rgb(78,154,6);stroke:none;" shape-rendering="geometricPrecision" />
    <ellipse cx="491.3298" cy="363.6527" rx="3" ry="3" style="fill:rgb(78,154,6);stroke:none;" shape-rendering="geometricPrecision" />
    <ellipse cx="586.2109" cy="375.8646" rx="3" ry="3" style="fill:rgb(78,154,6);stroke:none;" shape-rendering="geometricPrecision" />
    <ellipse cx="775.9733" cy="295.5" rx="3" ry="3" style="fill:rgb(78,154,6);stroke:none;" shape-rendering="geometricPrecision" />
    <polyline points="48.551,365.6259 80.1781,387.6279 111.8051,379.6285 143.4322,379.1459 175.0592,379.8327 206.6863,371.634 301.5674,376.8318 396.4486,347.8498 491.3298,360.6724 586.2109,372.9355 775.9733,295.5" style="fill:none;stroke:rgb(200,141,0);stroke-width:2;stroke-linejoin:bevel;stroke-dasharray:4,1" />
    <ellipse cx="48.551" cy="365.6259" rx="3" ry="3" style="fill:rgb(200,141,0);stroke:none;" shape-rendering="geometricPrecision" />
    <ellipse cx="80.1781" cy="387.6279" rx="3" ry="3" style="fill:rgb(200,141,0);stroke:none;" shape-rendering="geometricPrecision" />
    <ellipse cx="111.8051" cy="379.6285" rx="3" ry="3" style="fill:rgb(200,141,0);stroke:none;" shape-rendering="geometricPrecision" />
    <ellipse cx="143.4322" cy="379.1459" rx="3" ry="3" style="fill:rgb(200,141,0);stroke:none;" shape-rendering="geometricPrecision" />
    <ellipse cx="175.0592" cy="379.8327" rx="3" ry="3" style="fill:rgb(200,141,0);stroke:none;" shape-rendering="geometricPrecision" />
    <ellipse cx="206.6863" cy="371.634" rx="3" ry="3" style="fill:rgb(200,141,0);stroke:none;" shape-rendering="geometricPrecision" />
    <ellipse cx="301.5674" cy="376.8318" rx="3" ry="3" style="fill:rgb(200,141,0);stroke:none;" shape-rendering="geometricPrecision" />
    <ellipse cx="396.4486" cy="347.8498" rx="3" ry="3" style="fill:rgb(200,141,0);stroke:none;" shape-rendering="geometricPrecision" />
    <ellipse cx="491.3298" cy="360.6724" rx="3" ry="3" style="fill:rgb(200,141,0);stroke:none;" shape-rendering="geometricPrecision" />
    <ellipse cx="586.2109" cy="372.9355" rx="3" ry="3" style="fill:rgb(200,141,0);stroke:none;" shape-rendering="geometricPrecision" />
    <ellipse cx="775.9733" cy="295.5" rx="3" ry="3" style="fill:rgb(200,141,0);stroke:none;" shape-rendering="geometricPrecision" />
    <polyline points="48.551,548.3108 80.1781,439.4455 111.8051,402.2602 143.4322,395.0396 175.0592,393.7213 206.6863,382.3871 301.5674,381.5115 396.4486,351.6419 491.3298,364.376 586.2109,376.5543 775.9733,295.5" style="fill:none;stroke:rgb(204,0,0);stroke-width:2;stroke-linejoin:bevel;stroke-dasharray:4,1" />
    <ellipse cx="48.551" cy="548.3108" rx="3" ry="3" style="fill:rgb(204,0,0);stroke:none;" shape-rendering="geometricPrecision" />
    <ellipse cx="80.1781" cy="439.4455" rx="3" ry="3" style="fill:rgb(204,0,0);stroke:none;" shape-rendering="geometricPrecision" />
    <ellipse cx="111.8051" cy="402.2602" rx="3" ry="3" style="fill:rgb(204,0,0);stroke:none;" shape-rendering="geometricPrecision" />
    <ellipse cx="143.4322" cy="395.0396" rx="3" ry="3" style="fill:rgb(204,0,0);stroke:none;" shape-rendering="geometricPrecision" />
    <ellipse cx="175.0592" cy="393.7213" rx="3" ry="3" style="fill:rgb(204,0,0);stroke:none;" shape-rendering="geometricPrecision" />
    <ellipse cx="206.6863" cy="382.3871" rx="3" ry="3" style="fill:rgb(204,0,0);stroke:none;" shape-rendering="geometricPrecision" />
    <ellipse cx="301.5674" cy="381.5115" rx="3" ry="3" style="fill:rgb(204,0,0);stroke:none;" shape-rendering="geometricPrecision" />
    <ellipse cx="396.4486" cy="351.6419" rx="3" ry="3" style="fill:rgb(204,0,0);stroke:none;" shape-rendering="geometricPrecision" />
    <ellipse cx="491.3298" cy="364.376" rx="3" ry="3" style="fill:rgb(204,0,0);stroke:none;" shape-rendering="geometricPrecision" />
    <ellipse cx="586.2109" cy="376.5543" rx="3" ry="3" style="fill:rgb(204,0,0);stroke:none;" shape-rendering="geometricPrecision" />
    <ellipse cx="775.9733" cy="295.5" rx="3" ry="3" style="fill:rgb(204,0,0);stroke:none;" shape-rendering="geometricPrecision" />
    <polyline points="48.551,88.8025 80.1781,312.6135 111.8051,339.2907 143.4322,350.8015 175.0592,359.6333 206.6863,359.4377 301.5674,366.8132 396.4486,344.5954 491.3298,357.4878 586.2109,369.817 775.9733,295.5" style="fill:none;stroke:rgb(32,74,135);stroke-width:2;stroke-linejoin:bevel;stroke-dasharray:4,1" />
    <ellipse cx="48.551" cy="88.8025" rx="3" ry="3" style="fill:rgb(32,74,135);stroke:none;" shape-rendering="geometricPrecision" />
    <ellipse cx="80.1781" cy="312.6135" rx="3" ry="3" style="fill:rgb(32,74,135);stroke:none;" shape-rendering="geometricPrecision" />
    <ellipse cx="111.8051" cy="339.2907" rx="3" ry="3" style="fill:rgb(32,74,135);stroke:none;" shape-rendering="geometricPrecision" />
    <ellipse cx="143.4322" cy="350.8015" rx="3" ry="3" style="fill:rgb(32,74,135);stroke:none;" shape-rendering="geometricPrecision" />
    <ellipse cx="175.0592" cy="359.6333" rx="3" ry="3" style="fill:rgb(32,74,135);stroke:none;" shape-rendering="geometricPrecision" />
    <ellipse cx="206.6863" cy="359.4377" rx="3" ry="3" style="fill:rgb(32,74,135);stroke:none;" shape-rendering="geometricPrecision" />
    <ellipse cx="301.5674" cy="366.8132" rx="3" ry="3" style="fill:rgb(32,74,135);stroke:none;" shape-rendering="geometricPrecision" />
    <ellipse cx="396.4486" cy="344.5954" rx="3" ry="3" style="fill:rgb(32,74,135);stroke:none;" shape-rendering="geometricPrecision" />
    <ellipse cx="491.3298" cy="357.4878" rx="3" ry="3" style="fill:rgb(32,74,135);stroke:none;" shape-rendering="geometricPrecision" />
    <ellipse cx="586.2109" cy="369.817" rx="3" ry="3" style="fill:rgb(32,74,135);stroke:none;" shape-rendering="geometricPrecision" />
    <ellipse cx="775.9733" cy="295.5" rx="3" ry="3" style="fill:rgb(32,74,135);stroke:none;" shape-rendering="geometricPrecision" />
  </g>
  <defs>
    <clipPath id="clipPath3">
      <rect x="0" y="0" width="800" height="600" />
    </clipPath>
  </defs>
  <g clip-path="url(#clipPath3)">
    <text dominant-baseline="hanging" text-anchor="middle" transform="translate(415.8993,8)" font-family="Segoe UI" font-size="18" font-weight="700" fill="black">Curva de juros de USDBTC</text>
    <rect x="48.551" y="34.106" width="734.6965" height="522.788" style="fill:none;stroke:black;stroke-width:1" shape-rendering="crispEdges" />
  </g>
</svg>